<svg xmlns="http://www.w3.org/2000/svg" xmlns:xlink="http://www.w3.org/1999/xlink" width="168.112" height="200.33" xmlns:v="https://vecta.io/nano"><style><![CDATA[.B{fill:#fff}.C{fill:none}.D{stroke:#1f1f1f}.E{stroke-width:.326}.F{fill:#1f1f1f}.G{stroke-width:.311}]]></style><g class="B"><path d="M322.525 136.591c0-1.687-1.1-2.936-3.348-3.423v-1.091l6.556.167 6.271-.167v1.091c-2.086.407-3.182 1.639-3.182 3.423v21.42c0 6.783 3.725 10.617 11.516 10.617 6.713 0 11.937-3.014 11.937-10.113v-22.007c0-1.59-.999-2.853-3.515-3.339v-1.091c.916 0 4.343.167 5.513.167.999 0 4.597-.167 5.517-.167v1.091c-2.428.579-3.506 1.665-3.506 3.339v20.828c0 9.348-5.438 14.715-17.173 14.715-10.925 0-16.586-4.966-16.586-13.747v-21.713zm46.863 33.781c2.541-.473 3.545-1.761 3.545-3.339v-29.606c0-2.51-1.337-3.641-3.615-4.263v-1.091l4.558.153 3.615-.153 25.679 30.193v-25.758c0-1.587-1.008-2.849-3.514-3.343v-1.091l5.398.171 5.495-.171v1.091c-2.449.578-3.632 1.674-3.632 3.343v35.543h-1.547c-.973-.224-2.814-1.271-5.618-4.347l-22.975-26.762v26.091c0 1.587.915 2.844 3.422 3.339v1.096c-.92 0-4.224-.175-5.398-.175l-5.412.175v-1.096zm202.626-7.984h1.087c.575 2.213 1.841 4.229 3.615 5.394 1.846 1.302 4.742 1.924 7.082 1.924 5.166 0 8.44-2.559 8.44-6.608 0-4.193-4.194-6.371-9.22-8.882-3.739-1.871-11.083-4.96-11.083-12.059 0-6.613 5.044-10.728 13.111-10.728 5.324 0 7.822 1.302 11.415 1.135l-.07 8.024h-1.096c-1.437-4.728-5.731-6.376-10.433-6.376-5.258 0-7.226 3.007-7.226 6.065 0 4.378 4.285 6.586 9.14 8.752 5.461 2.432 11.385 5.504 11.385 12.344 0 6.477-5.065 11.166-14.325 11.166-5.508 0-8.813-1.573-11.709-1.929l-.114-8.22zm116.34-8.834v13.4c0 1.328 1.012 2.997 3.299 3.418v1.096c-1.275 0-5.438-.175-6.643-.175l-6.447.175v-1.096c2.296-.421 3.396-2.09 3.396-3.418v-12.813m.407 1.029l-10.456-16.774c-1.784-2.945-3.15-4.496-5.14-5.232v-1.088l6.402.172 6.678-.172v1.088c-1.337.236-1.963.906-1.963 1.914 0 .89.605 2.034 1.213 3.028l7.709 12.783 7.427-12.778c.75-1.279 1.28-2.55 1.28-3.387 0-.763-.54-1.394-1.806-1.56v-1.088l4.742.172 5.126-.172v1.013c-2.856 1.17-4.64 3.677-6.371 6.581l-9.505 15.885m-199.613-23.478h24.518c.758 0 2.086-.087 2.844-.416h1.096l-.172 7.966h-1.087c-.933-2.507-1.902-4.514-6.647-4.514h-10.645v13.883h8.204c1.196 0 2.646-.101 3.273-.25 1.844-.403 2.656-1.429 3.028-3.002h1.095l-.079 4.75.079 5.004h-1.095c-.526-1.569-1.245-2.761-3.028-3.199-.627-.167-2.103-.302-3.273-.302h-8.204v16.284h11.578c5.057 0 6.525-2.108 7.782-5.088l1.083.254-1.083 8.182c-3.76-.333-6.016-.333-10.285-.333h-12.234c-1.179 0-5.505.172-6.762.172v-1.091c2.208-.421 3.497-1.512 3.497-3.629v-30.117c0-1.867-1.004-3.033-3.485-3.449v-1.105zm-62.62 4.768c0-2.02-1.205-3.133-3.567-3.642v-1.082l6.81.166 6.744-.166v1.082c-2.349.509-3.58 1.516-3.58 3.642v29.908c0 2.02 1.21 3.12 3.58 3.619v1.096c-1.328 0-5.522-.172-6.744-.172l-6.814.172v-1.096c2.414-.451 3.571-1.507 3.571-3.619v-29.908z"/><path d="M611.458 136.845c0-2.02-1.218-3.133-3.576-3.642v-1.082l6.804.166 6.749-.166v1.082c-2.348.509-3.576 1.516-3.576 3.642v29.908c0 2.02 1.21 3.12 3.576 3.619v1.096c-1.319 0-5.508-.172-6.749-.172l-6.804.172v-1.096c2.41-.451 3.576-1.507 3.576-3.619zm34.079-4.601c-13.44 0-15.591-.25-18.339-.421l.022 8.116h1.095c1.003-3.598 3.006-4.435 5.601-4.435h8.431v31.248c0 2.112-1.156 3.169-3.576 3.619v1.096c1.328 0 5.806-.172 6.84-.172 1.232 0 5.439.172 6.749.172v-1.096c-2.376-.499-3.581-1.599-3.581-3.619v-31.248h8.365c2.691 0 4.615.916 5.618 4.435h1.083l.018-8.116c-2.731.171-4.881.421-18.326.421M538.29 150.697c1.253.171 3.098.25 4.921.25 7.375 0 9.698-4.243 9.698-7.998 0-5.311-3.546-8.602-10-8.602a28.48 28.48 0 0 0-4.619.421v15.929zm0 16.056c0 2.02 1.283 3.115 3.654 3.619v1.096c-1.314 0-5.613-.172-6.84-.172-1.052 0-5.25.172-6.573.172v-1.096c2.199-.421 3.496-1.507 3.496-3.619v-30.214c0-1.858-1.012-3.028-3.487-3.449v-1.087c1.314 0 5.472.166 6.647.166 1.924 0 7.393-.324 9.544-.324 9.421 0 14.666 3.895 14.666 10.574 0 5.25-3.904 8.799-9.917 10.249 0 0 1.373.798 2.739 2.388 1.661 1.959 6.148 8.397 8.01 10.648 1.858 2.257 4.238 4.777 6.788 4.891v.88a25.02 25.02 0 0 1-4.68.5c-3.199 0-5.754-1.13-8.234-4.132-2.147-2.612-5.789-8.032-7.932-10.772-1.371-1.744-3.033-3.107-6.073-3.607a33.4 33.4 0 0 0-1.81-.263v13.549zm-93.386-29.781c-.859-1.902-2.178-3.296-4.426-3.79v-1.109l7.305.175 6.648-.175v1.078c-1.276.245-2.731.951-2.731 2.256 0 .934.565 2.204 1.648 4.597l10.149 23.093 9.606-23.133c.758-1.867 1.306-3.313 1.306-4.417 0-1.222-1.126-2.068-2.722-2.397v-1.078l5.377.175 5.964-.175v1.109c-2.397.649-3.857 1.968-5.202 5.092l-14.137 33.334h-3.199l-15.587-34.636zm36.244-105.125c-1.634-3.607-4.141-6.236-8.387-7.178V22.57c2.642 0 11.415.316 13.431.316 1.858 0 10.355-.316 13.063-.316v2.046c-2.402.469-5.162 1.81-5.162 4.286 0 1.748 1.087 4.163 3.103 8.69l19.251 43.764 18.216-43.838c1.42-3.55 2.48-6.262 2.48-8.361 0-2.331-2.156-3.913-5.175-4.54V22.57c2.41 0 8.269.316 10.131.316 1.692 0 8.651-.316 11.298-.316v1.981c-4.54 1.231-7.318 3.839-9.847 9.759l-26.78 63.185h-6.06zM221.935 95.089c3.497-.798 5.955-2.388 5.955-6.35V30.812c0-3.803-2.287-5.381-5.955-6.337V22.42c1.836 0 9.745.311 11.67.311 2.217 0 10.508-.311 12.331-.311v2.055c-3.493.793-6.083 2.38-6.083 6.337V55.01h43.154V30.812c0-3.957-2.3-5.543-5.947-6.337V22.42c1.823 0 9.965.311 12.178.311 1.91 0 10.004-.311 11.81-.311v2.055c-3.497.793-6.087 2.38-6.087 6.337v57.927c0 3.803 2.432 5.399 6.087 6.35v1.897c-1.805 0-9.899-.157-11.81-.157l-12.178.157v-1.897c3.471-.798 5.947-2.388 5.947-6.35V61.364h-43.154v27.375c0 3.961 2.428 5.399 6.083 6.35v1.897c-1.823 0-10.114-.157-12.331-.157l-11.67.157zm518.062-3.817c2.703.491 7.699.798 11.638.798 22.301 0 33.909-13.423 33.909-32.143 0-19.408-12.248-33.063-33.098-33.063-4.26 0-9.583.32-12.449.785zm-18.9 3.817c4.478-.798 6.946-2.577 6.946-6.665V30.812c0-3.97-2.433-5.543-6.762-6.337V22.42c2.493 0 10.609.311 12.856.311 3.629 0 13.751-.793 21.63-.793 26.547 0 42.664 14.824 42.664 37.366 0 21.91-16.77 38.146-44.141 38.146-7.892 0-17.252-.622-20.915-.622-2.226 0-9.794.315-12.279.315v-2.055zM420.614 57.832c2.362.311 5.854.469 9.317.469 13.961 0 18.347-8.037 18.347-15.136 0-10.083-6.713-16.301-18.944-16.301a55.37 55.37 0 0 0-8.721.785v30.184zm0 30.381c0 3.839 2.432 5.925 6.906 6.876v2.055c-2.493 0-10.613-.315-12.949-.315-1.973 0-9.939.315-12.428.315v-2.055c4.154-.798 6.604-2.866 6.604-6.876V31.014c0-3.519-1.902-5.745-6.595-6.538V22.42c2.494 0 10.364.311 12.572.311 3.65 0 14.001-.609 18.085-.609 17.853 0 27.791 7.384 27.791 20.013 0 9.956-7.414 16.657-18.794 19.421 0 0 2.581 1.503 5.179 4.531 3.151 3.703 11.845 16.148 15.36 20.411s8.023 9.036 12.844 9.255v1.679a47.86 47.86 0 0 1-8.835.925c-6.086 0-10.92-2.13-15.622-7.827-4.053-4.943-11.144-15.451-15.206-20.64-2.594-3.304-5.723-5.881-11.467-6.831a58.78 58.78 0 0 0-3.445-.482v25.635z"/><path d="M655.914 57.832c2.392.311 5.863.469 9.329.469 13.966 0 18.34-8.037 18.34-15.136 0-10.083-6.718-16.301-18.926-16.301a55.61 55.61 0 0 0-8.743.785zm0 30.381c0 3.839 2.441 5.925 6.92 6.876v2.055c-2.489 0-10.601-.315-12.936-.315-2.007 0-9.948.315-12.445.315v-2.055c4.145-.798 6.6-2.866 6.6-6.876V31.014c0-3.519-1.919-5.745-6.586-6.538V22.42c2.502 0 10.346.311 12.572.311 3.658 0 14.004-.609 18.063-.609 17.883 0 27.791 7.384 27.791 20.013 0 9.956-7.397 16.657-18.785 19.421 0 0 2.594 1.503 5.17 4.531 3.181 3.703 11.876 16.148 15.377 20.411 3.528 4.268 8.037 9.036 12.831 9.255v1.679c-2.279.499-5.999.925-8.795.925-6.1 0-10.955-2.13-15.644-7.827-4.053-4.943-11.121-15.451-15.219-20.64-2.595-3.304-5.714-5.881-11.446-6.831a59.6 59.6 0 0 0-3.466-.482v25.635zM359.988 67.162l-11.884-27.69-11.069 27.69zm-47.585 27.914c4.724-1.104 7.318-4.163 9.04-8.256l23.899-57.506c1.017-2.379 2.2-7.27 2.2-7.27h6.687s1.196 4.904 2.191 7.287l25.258 57.646c1.801 3.97 3.751 6.836 8.773 8.098l-.013 1.915c-2.735 0-11.236-.158-13.169-.158l-12.774.158.009-1.915c3.676-.902 4.838-2.773 4.838-4.584 0-1.538-.636-3.273-1.407-5.074l-5.429-12.384h-27.831l-4.973 12.454c-.556 1.411-1.218 3.405-1.218 4.751 0 2.077 1.087 3.734 5.258 4.838l-.009 1.915c-2.471 0-8.996-.158-10.525-.158l-10.811.158.004-1.915zm284.362-27.914l-11.893-27.69-11.06 27.69zm-47.586 27.914c4.72-1.104 7.323-4.163 9.037-8.256l23.908-57.506c1.017-2.379 2.213-7.27 2.213-7.27h6.687s1.183 4.904 2.174 7.287l25.267 57.646c1.787 3.97 3.755 6.836 8.755 8.098l-.009 1.915c-2.726 0-11.236-.158-13.182-.158l-12.756.158v-1.915c3.699-.902 4.842-2.773 4.842-4.584 0-1.538-.627-3.273-1.385-5.074l-5.451-12.384h-27.831l-4.978 12.454c-.556 1.411-1.213 3.405-1.213 4.751 0 2.077 1.087 3.734 5.258 4.838v1.915c-2.48 0-8.996-.158-10.534-.158l-10.811.158.009-1.915z"/></g><path d="M1.444 1.092h166.223v62.794c0 28.766-10.709 89.782-82.485 135.19 0 0-77.783-32.481-83.738-135.19z" fill="#a51c30"/><path d="M85.013 200.027l-.468-.194c-.783-.328-78.411-33.89-84.334-135.992L.207.027h168.178v63.757c0 25.11-8.086 88.624-82.942 135.973zM2.158 1.978v61.806C7.775 160.539 78.44 194.918 84.837 197.83c73.64-46.8 81.593-109.307 81.593-134.046V1.978z" class="F"/><g class="B"><use xlink:href="#B"/><use xlink:href="#C"/><use xlink:href="#D"/></g><use xlink:href="#B" class="F"/><path d="M127.256 81.776s-1.479 4.725-8.074-.129l-22.624-.544s-2.964.952-3.367-2.149l.265-6.736s.138-1.749-2.831-1.749c0 0-4.581.538-4.71-3.505 0 0-.803-4.31 5.522-4.175 0 0 2.02.944 2.158-1.62l-.138-18.849s.544-1.614-2.558-1.885c0 0-4.445.938-4.984-2.014 0 0-.27-4.448 2.696-4.722 0 0 3.637.273 4.307-.673 0 0 .817.532.676-2.687l.141-5.53s.388-1.479 2.685-1.338c0 0 4.175.268 4.719-.141 0 0 .935-1.209 1.211-1.752 0 0 2.155-.13 2.555.406 0 0 3.237 2.155 15.489 1.347 0 0 1.89 0 2.29.544 0 0 2.287 1.747 3.637-.135 0 0 2.014-.409 8.077-.268 0 0 6.601 1.747 11.178-2.023l1.485.265s1.885 3.096 3.231 2.161c0 0 4.04-.403 4.713.403 0 0 1.341 2.011.67 7.274 0 0-.803 2.285 3.105 2.285 0 0 4.446-.809 3.899 3.364 0 0 1.211 4.719-6.189 4.048 0 0-.947 1.344-.814 2.288l-.268 17.106s-.13 2.426 3.099 2.293c0 0 4.313-.279 4.451 3.628 0 0 .535 5.124-5.666 4.175 0 0-1.885.27-2.158 1.482l-.262 6.736s.132 3.367-3.637 2.558c-.538 0-21.007.406-22.76-.132 0 0-.952-.135-1.22.397z" class="C D G"/><path d="M101.805 26.288l.268 3.378-.398 38.919s.398 2.96-2.149 4.441c0 0-.681.265-.814-1.616l.265-40.398s.27-4.989 2.829-4.724" class="B"/><path d="M101.805 26.288l.268 3.378-.397 38.919s.397 2.961-2.149 4.443c0 0-.682.265-.814-1.617l.265-40.398s.27-4.989 2.828-4.725z" class="C D E"/><path d="M97.366 73.432l.135-38.656c-.135-.665.13.542.13.542s-.4-6.599 1.346-9.302c0 0-.54-2.279-3.636.548l-.13 5.518s0 3.104-2.829 2.969c0 0-3.234-.144-4.719 1.338 0 0-.809 2.966 2.294 2.434 0 0 4.844 0 5.118 2.01l-.274 20.343s1.083 3.375-2.688 3.375c0 0-4.589-.285-4.45 2.547 0 0 .951 2.423 4.854 1.616 0 0 2.823.533 2.694 3.238v5.113s-.276 2.029 2.419 2.16h21.011s1.072.135 1.072-1.216c0 0-.13-1.076-1.744-1.076l-17.508-.268s-2.831.946-3.095-3.234m4.04-.062s-.539 1.885 1.479 1.488h13.869l3.769.813s3.902-.948 0-3.099c0 0-12.386.124-13.466-.135l-3.104-.811s-1.338-.535-2.547 1.744" class="B"/><path d="M101.406 73.369s-.538 1.885 1.479 1.488h13.869l3.769.814s3.902-.95 0-3.099c0 0-12.387.124-13.466-.135l-3.105-.811s-1.338-.535-2.546 1.744z" class="C D E"/><path d="M124.426 75.253s-2.558 0-2.423 3.375c0 0 .268 2.558 2.964 2.558 0 0 2.423-.405 2.162-3.095 0 0-1.488-3.371-2.703-2.838m1.894-1.336s1.209-1.344 2.02-1.344c0 0 13.471 1.209 15.748-.402 0 0 2.029-.409 2.569 0 0 0 2.018 1.611 2.018 2.549 0 0-.137 1.222-2.558.531l-16.029.146s-4.182.939-3.767-1.481" class="B"/><path d="M126.32 73.917s1.209-1.344 2.02-1.344c0 0 13.472 1.209 15.748-.403 0 0 2.029-.409 2.57 0 0 0 2.017 1.611 2.017 2.549 0 0-.135 1.223-2.558.532l-16.03.147s-4.181.938-3.766-1.482z" class="C D E"/><g class="B"><path d="M128.068 78.281s0-1.081 1.888-1.081l18.849-.133s1.759.944 1.759-2.288c0 0 .685-14.676.753-30.846.017-4.811.239-9.861.061-14.537 0 0-.415-2.02-.955-2.434 0 0 0-2.149 2.29-1.34 0 0 2.025.137 1.485 3.243l.137 4.695s-.407 2.029 3.227 1.488c0 0 3.636.541 3.771 1.881 0 0 1.079 2.705-3.225 2.429h-3.104s-1.346.805-.944 2.425l-.402 19.536s-.272 3.364 2.964 3.236c0 0 3.364-.141 4.036.939 0 0 2.305 3.367-2.688 3.093 0 0-3.099-.135-3.771.409 0 0-.541.666-.944 7.003 0 0 .274 3.773-2.555 3.364 0 0-18.732.267-20.472-.133 0 0-1.89.542-2.159-.946M103.83 25.063l-.409 43.246s-.13 2.012 3.238 2.418c0 0 3.904.4 4.839 0 0 0 2.575-.139 9.162.139 0 0 1.629 1.625 1.759-.413 0 0 1.07-35.004.539-42.287 0 0-.139-3.103-2.433-3.234 0 0-10.228.818-11.172 0l-4.043-1.068s-1.618.13-1.479 1.2"/><path d="M125.107 27.228l-.268 21.013-.27 17.101-.542 5.926s.813 1.218 1.481.409c0 0 4.317-1.092 7.007-.67 0 0 8.626.8 10.37-.552 0 0 1.351.672 1.746-1.479l.281-38.379s.522-5.4.252-5.929c0 0-.117-1.207-2.412-.135 0 0 .263 1.077-12.525.665 0 0-4.845-.133-5.118 2.031m21.416-.532l-.13 42.553s1.074 3.778 2.819 3.38c0 0 .263-.814.394-2.16l.55-40.545s-1.355-6.457-3.634-3.229"/></g><path d="M146.525 26.697l-.13 42.553s1.073 3.778 2.82 3.381c0 0 .262-.814.394-2.161l.55-40.544s-1.355-6.457-3.634-3.228z" class="C D E"/><g class="F"><path d="M129.99 39.436c-.409-1.079 2.29-1.211 2.29-1.211l1.348.27c.942-.139 1.886.27 1.886.27.942 1.479-.676 2.288-.676 2.288l-.535 1.749c-.139 1.486 0 14.286 0 14.286.267.665 1.35 1.873 1.35 1.873 0 1.214-1.488.952-1.488.952l-3.91.135c-1.211-.135-.803-1.486-.803-1.486 1.344-.674 1.749-3.106 1.749-3.106V42.129zm-18.18 12.528l-.272 4.174 1.209 2.014c.814 1.083-.542 1.894-.542 1.894l-4.304-.405c-.802-.405 0-1.753 0-1.753 1.083-.67 1.213-2.425 1.213-2.425l-.13-7.812.13-5.659c0-.674-1.074-1.883-1.074-1.883-.94-.13-.676-1.344-.676-1.344.27-.676 2.551-.27 2.551-.27h5.663c5.387 1.748 4.582 5.654 4.582 5.654.407 3.906-3.767 5.531-3.767 5.531l-.276 2.149 3.91 6.188c.676.544.54 1.085.54 1.085-.54 1.483-2.701 0-2.701 0l-4.843-7.544c-.405-.539-1.213.405-1.213.405m.133-10.646l.13 7.012c2.566 2.016 4.043-.818 4.043-.818 3.364-3.221 0-6.194-.539-6.994-.55-.818-3.234-.144-3.234-.144z"/><use xlink:href="#C"/></g><path d="M83.753 104.128s.938-.397 1.211-1.065c0 0 2.828-.279 3.228-.679l8.891.679s8.753.668 12.525-2.037c0 0 1.358 0 2.302.412 0 0 1.879.406 2.411 1.206l5.122-.135s2.966.95 2.693 2.84v2.417s-.544 4.851.806 5.122h3.91s3.231 1.485 2.828 3.367c0 0 .138 2.687-2.684 3.228 0 0-2.84.806-3.772.682 0 0-.952 1.209-1.088 2.687l-.4 17.647s-.273 1.879 2.555 1.611c0 0 4.169-.394 5.389 1.893 0 0 1.082 3.902-1.073 4.575l-1.611.809-3.513.544s-1.476.132-1.611 2.687v4.716s.135 3.231-2.428 3.231l-3.766.27s-.944.803-2.828.265l-23.704.135-2.705.544s-2.952 2.696-5.381.665l-1.888-1.485s-1.344.276-1.882.141c-.541-.141-25.32.276-25.32.276s-5.254.538-5.657-1.217c0 0-.67-6.868-.4-7.683 0 0 0-2.011-1.217-2.149 0 0-5.248-.265-5.386-.806 0 0-2.831-2.023-2.023-4.037 0 0 .95-2.699 3.778-2.969 0 0 4.304.685 4.304-.538 0 0 .273-.809.273-2.147l.135-17.111s.4-2.026-1.352-2.026c0 0-1.885.535-3.096-.265 0 0-3.228.135-3.902-2.426 0 0-.547-1.614.265-2.969 0 0 1.479-2.961 5.789-2.017 0 0 2.431.679 2.696-1.067l-.13-6.468s-.544-1.749 2.825-2.696c0 0 4.313 1.211 5.654-.941 0 0 1.479-2.966 2.685-.952 0 0 2.569 2.431 9.573 2.172 0 0 12.122-.952 12.387-.42 0 0 2.964.42 3.772 1.352l.808.132z" class="C D G"/><g class="B"><path d="M87.257 157.226s1.618-.82 2.699-.533c1.076.257 16.835-.141 16.835-.141s6.866.533 7.945-.415l1.605-.537s.679-.8.679-1.873c0-1.09.137-4.722.137-4.722l.407-1.337s-.133-1.353 0-37.324c0 0 .531-2.814-1.224-4.571 0 0 0-1.074.544-.942.546.142.272.142.272.142s2.421-.685 2.821.257c0 0 1.087 3.223.135 5.113 0 0-.268 3.913 1.766 3.913 0 0 .803.813 2.418.405 0 0 3.499.407 3.499 1.477 0 0 0 2.429-2.425 2.023l-3.236.267s-2.157.416-1.885 2.96c.274 2.564-.137 20.881-.137 20.881s0 2.164 3.371 2.033c0 0 4.176-.144 4.176 1.064 0 0 1.076 2.699-1.885 2.836 0 0-5.663-.137-5.252 1.474 0 0-.411 3.773-.679 4.443 0 0 .548 3.104-.131 3.643 0 0-.394 1.751-4.034 1.479 0 0-23.164-.128-26.805.131 0 0-2.159-.259-1.618-2.149m-4.169-2.555s2.288.396 2.288 2.558c0 2.149.135 3.365-1.218 3.634-1.34.267-2.819-.133-3.219-1.877-.411-1.757.259-3.919 2.149-4.315"/><path d="M85.776 153.59s2.419-1.625 3.364-1.35c0 0 12.257.809 16.035.144 3.769-.679 1.479-.144 1.479-.144s3.234 0 4.173-1.214c0 0 .946-.259 1.485.679l2.008 2.16s.146 1.342-2.147 1.203l-22.623.139s-4.176.666-3.773-1.618"/></g><path d="M85.776 153.59s2.42-1.626 3.364-1.35c0 0 12.257.809 16.035.144 3.769-.679 1.479-.144 1.479-.144s3.234 0 4.172-1.214c0 0 .947-.259 1.485.679l2.008 2.161s.147 1.341-2.147 1.203l-22.624.138s-4.175.667-3.772-1.617z" class="C D E"/><path d="M53.859 105.775s.94 0 .809 1.618l-.274 40.676s.405 2.699-1.881 4.448c0 0-1.22 1.474-1.22-.811l.546-41.483s.131-3.099 2.02-4.448" class="B"/><path d="M53.859 105.775s.941 0 .809 1.617l-.273 40.677s.406 2.699-1.882 4.448c0 0-1.22 1.473-1.22-.811l.547-41.482s.132-3.099 2.02-4.448z" class="C D E"/><path d="M51.705 106.048s-1.618 2.964-1.481 3.643l-.137 9.013v6.466c.137.674-.135 17.649-.135 17.649s-.135 3.223 0 4.311v7.268s-.27 3.234 2.153 2.419c0 0 23.701-.539 25.191-.124 0 0 2.149.394 1.35 1.474 0 0 0 .946-1.494.674 0 0-11.176 1.07-21.272.676 0 0-6.738.394-7.144-.404 0 0-1.075-.131-1.075-4.045 0 0 0-3.628-.259-4.302 0 0 .259-1.907-3.104-2.299 0 0-4.711.815-4.848-2.014 0 0 .672-2.02 5.25-1.755 0 0 3.369.539 2.703-2.16l.396-19.922s.411-3.513-1.885-3.649c0 0-2.149-.118-2.831.135 0 0-3.906 0-3.634-2.279 0 0 1.346-2.429 5.25-1.89 0 0 2.962.537 3.099-2.823 0 0-.137-6.873 1.479-7.138 0 0 3.373.124 2.429 1.076m4.033 44.578s1.888 2.01 4.989 1.89l18.306.265s2.029.139 1.901 1.209c0 0-.285 1.611-2.695 1.079l-22.092-.268-2.429.144s-1.618-.276.95-3.375l1.07-.944z" class="B"/><path d="M55.739 150.626a6.88 6.88 0 0 0 4.989 1.89l18.306.265s2.028.138 1.902 1.208c0 0-.285 1.611-2.696 1.079l-22.092-.268-2.428.144s-1.617-.276.95-3.375l1.07-.944z" class="C D E"/><path d="M112.31 148.864s1.618 3.103 2.425 3.525c0 0 1.483 1.738 1.079-1.359l.27-38.801s-.405-1.34 0-3.49l-1.616-2.967s-1.755-1.342-1.755.813l-.268 41.35-.135.929z" class="B"/><path d="M112.31 148.864s1.617 3.102 2.426 3.525c0 0 1.482 1.738 1.079-1.358l.27-38.801s-.406-1.341 0-3.49l-1.617-2.966s-1.755-1.344-1.755.811l-.268 41.35z" class="C D E"/><path d="M82.413 130.416s.135 3.225-.276 6.322c-.222 1.697.544 9.572-.139 13.612 0 0-.124 1.342-2.96.141 0 0-17.238.394-17.771-.141 0 0-4.719.141-5.12-2.29 0 0 .67-18.447.27-19.143 0 0-.27-10.091 0-11.029 0 0 .4-9.293.131-10.372 0 0 .135-2.155-.265-3.236 0 0 0-1.35 2.288-.542 0 0 .796 1.485 5.248.824 0 0 3.24.531 6.337.126 0 0 6.864-.537 8.623 0 0 0 2.695-.537 3.493 2.433l-.135 8.347.809 2.69.946-.665.396-2.025.135-8.891s.539-1.62 2.697-1.888c0 0 3.365-.407 3.915-.126.533.259 7.801.661 9.835.259 2.01-.405 2.41 1.346 8.477-1.742 0 0 1.618.13 1.618 1.201 0 0-.553 11.457 0 13.608 0 0 0 21.009-.415 22.488l.276 6.738s.265 2.964-4.439 3.236c0 0 2.96.4-15.633-.137 0 0-2.96-.135-6.192 1.337 0 0-.67-.131-.67-1.877 0 0 .531-6.326 0-12.534l-.265-6.862-1.214.141z" class="B"/><g class="F"><path d="M70.287 120.861s.409 9.967 0 11.314l-.124 2.155s.533 1.475 1.34 2.02c0 0 .677 1.881-.946 1.755l-4.169-.15s-1.894 0 0-2.408c0 0 .668-.952.531-3.371 0 0 0-11.314.278-11.983 0 0 .265-1.487-.683-1.896l-1.616.139-2.012 1.886s-.411 2.027-1.355-.13v-1.085l1.214-3.228.815-.142s1.205.814 2.284 1.087h6.337l2.284-1.087s.94.142.679 1.351c0 0 .396 3.104-1.353 3.502 0 0-1.079-.398-1.611-1.885 0 0-1.759-.939-1.894 2.155m29.761-3.63s-5.107-.411-5.237 5.113c0 0-.555 3.778 5.113 6.207 0 0 4.174 2.01 3.899 4.569 0 0-.537 4.58-4.983 2.29 0 0-2.149-1.079-2.01-2.29 0 0-.679-1.485-1.485-1.211 0 0-.953.267-.533 4.713 0 0 0 1.751 2.018 0l1.07.27s3.638 2.964 6.729-.678c0 0 3.377-3.095.944-6.864 0 0-1.749-2.69-4.839-4.037 0 0-2.969-1.359-3.639-3.643 0 0 .946-4.043 4.572-1.892 0 0 1.351 1.62 2.157 1.892 0 0 1.079 0 .805-2.431l-.255-2.008s-.274-1.499-2.164 0c0 0-1.751.661-2.16 0m-16.425-2.838c.939.683 1.074 2.023 1.074 2.023 2.695 7.142 4.985 17.51 4.985 17.51.672 1.342 1.886 2.429 1.886 2.429 2.29.803 0 1.472 0 1.472-.944.411-4.036-.124-4.036-.124-1.622-.283-.955-.809-.955-.809.679-.679.135-3.378.135-3.378-.135-1.066-1.34-2.823-1.34-2.823-.535-.272-1.481.944-1.481.944s-1.479.539-1.62 0c-.137-.546-1.077-1.066-1.077-1.066-1.614 0-2.284 4.024-2.284 4.024.94 3.375 0 2.825 0 2.825-.809 1.085-3.369.283-3.369.283-1.209-.283-.396-1.224-.396-1.224 1.475-.265 1.875-1.885 1.875-1.885.679-.94 4.98-18.449 4.98-18.449.413-.814.679-2.427 1.623-1.753m-2.149 8.891c-.141.674-1.085 4.445-1.085 4.445l.805 1.353s2.155.13 2.964.13c.803 0 .944-.663.944-1.353 0-.665-1.479-4.704-1.479-4.704l-.679-.805-1.47.935z"/><use xlink:href="#D"/></g><path d="M47.133 81.776s-1.485 4.725-8.082-.135l-22.624-.538s-2.964.952-3.369-2.152l.265-6.733s.141-1.752-2.823-1.752c0 0-4.578.547-4.71-3.496 0 0-.811-4.319 5.519-4.181 0 0 2.014.944 2.155-1.611l-.141-18.864s.55-1.6-2.555-1.873c0 0-4.448.932-4.978-2.031 0 0-.273-4.437 2.687-4.71 0 0 3.634.273 4.313-.662 0 0 .809.524.673-2.71l.135-5.513s.403-1.485 2.687-1.349c0 0 4.178.262 4.722-.135 0 0 .947-1.209 1.203-1.752 0 0 2.164-.124 2.567.403 0 0 3.228 2.155 15.497 1.349 0 0 1.876 0 2.285.541 0 0 2.285 1.747 3.628-.144 0 0 2.023-.397 8.085-.262 0 0 6.589 1.744 11.176-2.011l1.479.268s1.882 3.093 3.24 2.149c0 0 4.037-.406 4.719.406 0 0 1.341 2.02.662 7.274 0 0-.803 2.29 3.099 2.29 0 0 4.445-.803 3.907 3.358 0 0 1.217 4.719-6.192 4.048 0 0-.947 1.349-.814 2.288l-.268 17.106s-.129 2.42 3.099 2.293c0 0 4.31-.282 4.445 3.634 0 0 .532 5.119-5.654 4.169 0 0-1.89.276-2.161 1.482l-.265 6.733s.141 3.369-3.643 2.567c-.538 0-21.004.397-22.757-.132 0 0-.938-.141-1.211.391z" class="C D G"/><path d="M21.677 26.295l.276 3.36-.411 38.925s.411 2.973-2.155 4.448c0 0-.67.276-.809-1.611l.27-40.404s.268-4.987 2.829-4.719" class="B"/><path d="M21.677 26.295l.276 3.361-.412 38.925s.412 2.972-2.155 4.448c0 0-.67.276-.808-1.611l.27-40.403s.268-4.986 2.828-4.719z" class="C D E"/><path d="M17.235 73.432l.135-38.66c-.135-.666.133.544.133.544s-.398-6.588 1.346-9.295c0 0-.539-2.29-3.638.539l-.13 5.524s0 3.103-2.831 2.968c0 0-3.234-.144-4.722 1.346 0 0-.802 2.958 2.292 2.427 0 0 4.85 0 5.118 2.005l-.268 20.348s1.083 3.367-2.693 3.367c0 0-4.578-.268-4.448 2.56 0 0 .948 2.429 4.858 1.618 0 0 2.825.535 2.695 3.221v5.126s-.278 2.025 2.421 2.151h21.013s1.074.141 1.074-1.22c0 0-.137-1.061-1.748-1.061l-17.503-.274s-2.836.94-3.104-3.234m3.637.269s-.535 1.894 1.475 1.481h13.875l3.773.803s3.915-.939 0-3.093c0 0-12.392.135-13.471-.131l-3.097-.805s-1.349-.539-2.555 1.746" class="B"/><path d="M20.872 73.701s-.535 1.893 1.476 1.482h13.874l3.772.803s3.916-.938 0-3.093c0 0-12.393.135-13.472-.132l-3.096-.806s-1.349-.538-2.555 1.746z" class="C D E"/><path d="M43.907 75.595s-2.566 0-2.431 3.354c0 0 .267 2.569 2.96 2.569 0 0 2.425-.413 2.158-3.099 0 0-1.488-3.371-2.688-2.825m1.881-1.355s1.209-1.346 2.02-1.346c0 0 13.465 1.213 15.757-.398 0 0 2.025-.4 2.556 0 0 0 2.022 1.611 2.022 2.553 0 0-.13 1.222-2.553.546l-16.029.133s-4.182.937-3.773-1.488" class="B"/><path d="M45.787 74.239s1.209-1.347 2.02-1.347c0 0 13.466 1.214 15.756-.397 0 0 2.026-.4 2.558 0 0 0 2.02 1.611 2.02 2.552 0 0-.129 1.223-2.552.547l-16.03.132s-4.181.938-3.772-1.488z" class="C D E"/><path d="M47.941 78.281s0-1.07 1.875-1.07l18.867-.141s1.748.931 1.748-2.292c0 0 .691-14.682.755-30.85.02-4.807.233-9.858.052-14.534 0 0-.405-2.014-.942-2.429 0 0 0-2.155 2.297-1.338 0 0 2.012.13 1.472 3.223l.137 4.717s-.407 2.016 3.228 1.485c0 0 3.632.531 3.767 1.881 0 0 1.085 2.699-3.219 2.423h-3.093s-1.353.805-.95 2.425l-.404 19.53s-.276 3.364 2.964 3.241c0 0 3.367-.141 4.034.935 0 0 2.294 3.371-2.693 3.097 0 0-3.091-.135-3.771.405 0 0-.533.679-.942 6.998 0 0 .272 3.778-2.56 3.373 0 0-18.717.265-20.463-.139 0 0-1.89.544-2.158-.94M23.689 25.073l-.394 43.238s-.131 2.008 3.232 2.414c0 0 3.91.409 4.845 0 0 0 2.555-.13 9.162.141 0 0 1.618 1.611 1.749-.405 0 0 1.079-35.017.541-42.292 0 0-.135-3.095-2.431-3.234 0 0-10.231.807-11.174 0l-4.036-1.077s-1.623.131-1.494 1.216m42.705 1.623l-.135 42.559s1.076 3.773 2.831 3.369c0 0 .268-.809.404-2.16l.539-40.539s-1.348-6.466-3.638-3.229" class="B"/><path d="M66.394 26.697l-.135 42.559s1.076 3.772 2.831 3.369c0 0 .268-.808.403-2.161l.538-40.539s-1.347-6.465-3.637-3.228z" class="C D E"/><path d="M44.984 27.055l-.276 21.013-.257 17.103-.542 5.922s.8 1.22 1.475.411c0 0 4.317-1.079 7.007-.676 0 0 8.627.816 10.37-.535 0 0 1.346.665 1.749-1.485l.272-38.384s.539-5.389.265-5.922c0 0-.141-1.222-2.419-.142 0 0 .265 1.081-12.525.676 0 0-4.85-.133-5.118 2.02" class="B"/><path d="M40.826 39.511l-1.216 2.566s-2.958 13.055-4.571 15.752c0 0-.267 2.705-2.558.537l-5.529-17.099-1.749-1.216s-1.064-1.483.811-1.614l4.983.131s1.614 1.348-.535 2.84c0 0 .265 2.149 3.093 10.361 0 0 .805 3.097 1.749.809l2.699-9.563-.815-2.829s-.807-1.348.407-1.483c0 0 2.827-.267 3.23.809m7.817 2.158l-.141 14.278-.398 1.07s-1.346 1.751-.405 1.89c0 0-1.205.809 8.615.94 0 0 3.778.67 2.834-4.178 0 0-.405-1.746-1.759.809 0 0-.409 2.153-5.244 1.479 0 0-1.079-.94-1.079-2.01v-5.931s-.141-1.481 2.151-1.335c0 0 2.558 1.605 2.967.92 0 0 .938-2.144 0-3.489 0 0-1.22-.128-1.349.402 0 0-.811 1.618-3.097.674 0 0-1.077-2.151-.405-3.9 0 0-.267-3.373 2.023-3.103 0 0 2.694.539 2.958 1.351 0 0 .666 1.622 1.351-.267l-.685-2.295s-.391-.942-1.07-.674c0 0-4.578.674-5.118.131l-3.643.407s-.531 1.346 1.085 2.016a1.03 1.03 0 0 0 .409.815" class="F"/><defs ><path id="B" d="M127.256 81.776s-1.479 4.724-8.073-.13l-22.625-.544s-2.964.953-3.367-2.149l.265-6.735s.139-1.749-2.831-1.749c0 0-4.582.537-4.709-3.506 0 0-.803-4.31 5.52-4.174 0 0 2.02.944 2.159-1.62l-.139-18.849s.544-1.614-2.556-1.885c0 0-4.446.937-4.983-2.016 0 0-.272-4.446 2.695-4.721 0 0 3.638.274 4.308-.674 0 0 .816.533.676-2.688l.141-5.529s.389-1.479 2.684-1.338c0 0 4.176.268 4.719-.141 0 0 .937-1.209 1.213-1.753 0 0 2.155-.128 2.555.407 0 0 3.238 2.155 15.489 1.346 0 0 1.89 0 2.29.544 0 0 2.288 1.746 3.638-.135 0 0 2.014-.409 8.077-.268 0 0 6.6 1.747 11.177-2.021l1.485.265s1.885 3.095 3.232 2.16c0 0 4.039-.404 4.713.402 0 0 1.34 2.012.67 7.275 0 0-.803 2.284 3.104 2.284 0 0 4.447-.809 3.899 3.364 0 0 1.213 4.719-6.189 4.048 0 0-.946 1.344-.815 2.288l-.268 17.105s-.128 2.425 3.099 2.294c0 0 4.313-.279 4.452 3.628 0 0 .535 5.124-5.665 4.174 0 0-1.886.27-2.159 1.483l-.263 6.735s.133 3.367-3.636 2.558c-.539 0-21.007.405-22.76-.131 0 0-.951-.137-1.22.396"/><path id="C" d="M83.756 104.29s.94-.398 1.209-1.064c0 0 2.831-.276 3.23-.676l8.895.676s8.749.666 12.521-2.038c0 0 1.359 0 2.303.413 0 0 1.875.405 2.41 1.209l5.124-.137s2.962.95 2.688 2.842v2.414s-.544 4.85.805 5.12h3.917s3.228 1.485 2.825 3.367c0 0 .135 2.688-2.684 3.23 0 0-2.84.803-3.773.679 0 0-.95 1.209-1.09 2.688l-.396 17.647s-.278 1.881 2.555 1.614c0 0 4.169-.4 5.389 1.892 0 0 1.081 3.902-1.076 4.576l-1.609.802-3.514.55s-1.475.133-1.611 2.688v4.709s.135 3.238-2.427 3.238l-3.769.27s-.944.803-2.829.265l-23.706.133-2.701.546s-2.956 2.695-5.383.665l-1.885-1.485s-1.344.274-1.883.141c-.54-.141-25.324.274-25.324.274s-5.254.541-5.654-1.214c0 0-.67-6.872-.402-7.686 0 0 0-2.01-1.214-2.145 0 0-5.252-.265-5.387-.813 0 0-2.834-2.016-2.023-4.03 0 0 .948-2.705 3.776-2.969 0 0 4.306.681 4.306-.539 0 0 .274-.809.274-2.145l.133-17.116s.4-2.022-1.349-2.022c0 0-1.888.535-3.097-.268 0 0-3.228.135-3.904-2.425 0 0-.544-1.614.265-2.969 0 0 1.481-2.962 5.792-2.014 0 0 2.429.679 2.694-1.068l-.128-6.47s-.546-1.751 2.823-2.693c0 0 4.313 1.211 5.654-.944 0 0 1.485-2.967 2.684-.95 0 0 2.569 2.431 9.576 2.17 0 0 12.123-.95 12.388-.416 0 0 2.96.416 3.769 1.351l.811.13z"/><path id="D" d="M47.133 81.776s-1.485 4.724-8.082-.135l-22.625-.539s-2.964.953-3.369-2.151l.265-6.733s.141-1.753-2.823-1.753c0 0-4.578.546-4.709-3.497 0 0-.811-4.319 5.518-4.18 0 0 2.014.944 2.155-1.611l-.141-18.865s.55-1.599-2.555-1.871c0 0-4.448.931-4.978-2.033 0 0-.274-4.435 2.688-4.709 0 0 3.634.274 4.313-.663 0 0 .807.524.672-2.71l.135-5.513s.404-1.485 2.688-1.349c0 0 4.178.263 4.722-.135 0 0 .946-1.209 1.201-1.753 0 0 2.164-.122 2.568.404 0 0 3.229 2.155 15.498 1.349 0 0 1.875 0 2.284.541 0 0 2.284 1.747 3.628-.142 0 0 2.022-.398 8.084-.263 0 0 6.59 1.744 11.176-2.01l1.479.267s1.883 3.093 3.24 2.149c0 0 4.037-.405 4.719.405 0 0 1.342 2.021.663 7.275 0 0-.803 2.29 3.099 2.29 0 0 4.445-.803 3.908 3.358 0 0 1.216 4.719-6.192 4.048 0 0-.948 1.349-.814 2.288l-.268 17.105s-.13 2.419 3.099 2.294c0 0 4.311-.283 4.447 3.634 0 0 .531 5.118-5.653 4.169 0 0-1.892.276-2.162 1.483l-.265 6.733s.141 3.369-3.641 2.566c-.539 0-21.005.398-22.758-.131 0 0-.937-.142-1.211.391"/></defs></svg>