<?xml version="1.0" encoding="UTF-8" standalone="no"?>
<svg
   id="Layer_2"
   width="168.11197"
   height="200.32994"
   viewBox="0 0 168.11197 200.32994"
   version="1.1"
   sodipodi:docname="logo.svg"
   inkscape:version="1.3 (0e150ed6c4, 2023-07-21)"
   xmlns:inkscape="http://www.inkscape.org/namespaces/inkscape"
   xmlns:sodipodi="http://sodipodi.sourceforge.net/DTD/sodipodi-0.dtd"
   xmlns="http://www.w3.org/2000/svg"
   xmlns:svg="http://www.w3.org/2000/svg">
  <defs
     id="defs74" />
  <sodipodi:namedview
     id="namedview74"
     pagecolor="#ffffff"
     bordercolor="#000000"
     borderopacity="0.25"
     inkscape:showpageshadow="2"
     inkscape:pageopacity="0.0"
     inkscape:pagecheckerboard="0"
     inkscape:deskcolor="#d1d1d1"
     inkscape:zoom="2.9900673"
     inkscape:cx="84.11182"
     inkscape:cy="100.16497"
     inkscape:window-width="1440"
     inkscape:window-height="837"
     inkscape:window-x="-8"
     inkscape:window-y="-8"
     inkscape:window-maximized="1"
     inkscape:current-layer="Layer_2" />
  <g
     id="Layer_1-2"
     transform="translate(0.20716526,0.02669466)">
    <g
       id="g74">
      <g
         id="g17">
        <path
           d="m 322.3185,136.5641 c 0,-1.6875 -1.0996,-2.9359 -3.3478,-3.4225 v -1.0914 c 1.2445,0 5.3897,0.1666 6.5557,0.1666 1.008,0 5.0218,-0.1666 6.2707,-0.1666 v 1.0914 c -2.0859,0.407 -3.1817,1.639 -3.1817,3.4225 v 21.42 c 0,6.783 3.7249,10.6174 11.5164,10.6174 6.7132,0 11.9366,-3.0144 11.9366,-10.1134 v -22.0074 c 0,-1.5905 -0.9989,-2.8526 -3.5146,-3.3391 v -1.0914 c 0.9159,0 4.3428,0.1666 5.5127,0.1666 0.9993,0 4.5967,-0.1666 5.5171,-0.1666 v 1.0914 c -2.4275,0.5786 -3.5059,1.6652 -3.5059,3.3391 v 20.8278 c 0,9.3477 -5.4381,14.7155 -17.1731,14.7155 -10.9247,0 -16.5863,-4.9657 -16.5863,-13.7472 v -21.7127 z"
           fill="#ffffff"
           id="path1" />
        <path
           d="m 369.1805,170.3453 c 2.5415,-0.473 3.5451,-1.7612 3.5451,-3.3392 v -29.6055 c 0,-2.5104 -1.3366,-3.6406 -3.6154,-4.2628 v -1.0914 c 1.2886,0.0959 3.453,0.1531 4.5575,0.1531 1.0037,0 2.5632,-0.0175 3.6149,-0.1531 l 25.679,30.1929 v -25.7585 c 0,-1.5867 -1.0081,-2.8487 -3.5137,-3.343 v -1.0914 c 0.9199,0 4.2241,0.1705 5.3979,0.1705 1.0216,0 4.5624,-0.1705 5.4948,-0.1705 v 1.0914 c -2.4493,0.5777 -3.6318,1.6739 -3.6318,3.343 v 35.5433 h -1.547 c -0.9732,-0.2239 -2.8138,-1.2707 -5.618,-4.3472 l -22.9751,-26.7617 v 26.0909 c 0,1.5867 0.9154,2.8438 3.422,3.3392 v 1.0963 c -0.9199,0 -4.2241,-0.1755 -5.3984,-0.1755 -1.0124,0 -4.4785,0.1755 -5.4119,0.1755 v -1.0963 z"
           fill="#ffffff"
           id="path2" />
        <path
           d="m 571.8073,162.3613 h 1.0865 c 0.5748,2.2129 1.8407,4.229 3.6154,5.394 1.8455,1.3017 4.7416,1.924 7.0815,1.924 5.1662,0 8.4404,-2.559 8.4404,-6.6085 0,-4.1931 -4.1941,-6.3711 -9.2198,-8.8825 -3.7385,-1.8706 -11.0827,-4.9597 -11.0827,-12.0587 0,-6.6134 5.0441,-10.7279 13.1114,-10.7279 5.3242,0 7.822,1.3018 11.4151,1.1351 l -0.0698,8.0237 h -1.0963 c -1.4374,-4.7281 -5.7313,-6.3759 -10.4332,-6.3759 -5.2583,0 -7.226,3.0066 -7.226,6.0647 0,4.3782 4.2852,6.5862 9.1403,8.7516 5.4609,2.4319 11.3851,5.5035 11.3851,12.3437 0,6.4767 -5.0654,11.166 -14.3249,11.166 -5.5084,0 -8.8126,-1.5732 -11.7089,-1.9289 l -0.1143,-8.2204 z"
           fill="#ffffff"
           id="path3" />
        <path
           d="m 688.1473,153.5274 v 13.4002 c 0,1.3279 1.012,2.997 3.2995,3.4177 v 1.0963 c -1.2746,0 -5.4377,-0.1755 -6.6425,-0.1755 -1.0129,0 -5.0054,0.1755 -6.4466,0.1755 v -1.0963 c 2.2961,-0.4207 3.3963,-2.0898 3.3963,-3.4177 v -12.8129 m 0.4071,1.0294 -10.4556,-16.7743 c -1.7835,-2.9446 -3.1501,-4.4964 -5.14,-5.2321 v -1.0875 c 1.4335,0 5.3029,0.1715 6.4021,0.1715 0.9944,0 5.1711,-0.1715 6.6783,-0.1715 v 1.0875 c -1.3366,0.2364 -1.9627,0.9062 -1.9627,1.9143 0,0.8898 0.6048,2.0335 1.2135,3.028 0.5961,0.9857 7.7086,12.7828 7.7086,12.7828 l 7.4267,-12.778 c 0.7502,-1.2794 1.2804,-2.5501 1.2804,-3.3875 0,-0.7629 -0.5399,-1.3938 -1.8057,-1.5596 v -1.0875 c 1.258,0 3.9003,0.1715 4.7416,0.1715 0.8413,0 3.878,-0.1715 5.1265,-0.1715 v 1.0129 c -2.8564,1.1699 -4.6399,3.6765 -6.371,6.5813 l -9.5047,15.8854"
           fill="#ffffff"
           id="path4" />
        <path
           d="m 487.8818,132.0503 h 24.5177 c 0.758,0 2.0859,-0.0872 2.8438,-0.4159 h 1.0963 l -0.1715,7.9665 h -1.0865 c -0.9335,-2.5066 -1.9018,-4.514 -6.6473,-4.514 h -10.6446 v 13.8829 h 8.2039 c 1.1961,0 2.6461,-0.1007 3.2733,-0.25 1.8445,-0.4033 2.6557,-1.4288 3.0279,-3.0018 h 1.0954 c -0.0786,1.2009 -0.0786,3.9401 -0.0786,4.7504 0,0.8152 0.0786,3.6988 0.0786,5.0044 h -1.0954 c -0.5262,-1.5693 -1.2445,-2.7605 -3.0279,-3.1986 -0.6272,-0.1666 -2.1034,-0.3024 -3.2733,-0.3024 h -8.2039 v 16.2839 h 11.5779 c 5.0567,0 6.5251,-2.1081 7.7823,-5.0877 l 1.0828,0.254 -1.0828,8.1816 c -3.7597,-0.3334 -6.0163,-0.3334 -10.2849,-0.3334 h -12.2341 c -1.1786,0 -5.5045,0.1716 -6.7617,0.1716 v -1.0914 c 2.208,-0.4207 3.4971,-1.5121 3.4971,-3.629 v -30.1172 c 0,-1.8669 -1.0041,-3.0329 -3.4845,-3.4488 v -1.1049 z"
           fill="#ffffff"
           id="path5" />
        <path
           d="m 425.2617,136.8181 c 0,-2.02 -1.2047,-3.1327 -3.5669,-3.6416 v -1.0817 c 1.3153,0 5.5704,0.1658 6.8101,0.1658 1.0391,0 5.4124,-0.1658 6.7442,-0.1658 v 1.0817 c -2.3485,0.5089 -3.5805,1.516 -3.5805,3.6416 v 29.9079 c 0,2.0199 1.2097,3.12 3.5805,3.6193 v 1.0963 c -1.3279,0 -5.5219,-0.1716 -6.7442,-0.1716 -1.0565,0 -5.4948,0.1716 -6.814,0.1716 v -1.0963 c 2.4144,-0.4507 3.5707,-1.5073 3.5707,-3.6193 v -29.9079 z"
           fill="#ffffff"
           id="path6" />
        <path
           d="m 611.2509,136.8181 c 0,-2.02 -1.2183,-3.1327 -3.5756,-3.6416 v -1.0817 c 1.3143,0 5.5733,0.1658 6.8043,0.1658 1.0477,0 5.4211,-0.1658 6.7491,-0.1658 v 1.0817 c -2.3485,0.5089 -3.5757,1.516 -3.5757,3.6416 v 29.9079 c 0,2.0199 1.2097,3.12 3.5757,3.6193 v 1.0963 c -1.3192,0 -5.5084,-0.1716 -6.7491,-0.1716 -1.0381,0 -5.49,0.1716 -6.8043,0.1716 v -1.0963 c 2.4096,-0.4507 3.5756,-1.5073 3.5756,-3.6193 z"
           fill="#ffffff"
           id="path7" />
        <path
           d="m 645.3296,132.2169 c -13.4399,0 -15.5908,-0.25 -18.3387,-0.4206 l 0.0223,8.1158 h 1.0953 c 1.0032,-3.5979 3.0057,-4.4345 5.6005,-4.4345 h 8.4307 v 31.2484 c 0,2.112 -1.1563,3.1686 -3.5756,3.6193 v 1.0963 c 1.3279,0 5.8059,-0.1716 6.8402,-0.1716 1.2319,0 5.4386,0.1716 6.7491,0.1716 v -1.0963 c -2.3757,-0.4992 -3.5805,-1.5994 -3.5805,-3.6193 v -31.2484 h 8.3648 c 2.6907,0 4.6147,0.9159 5.618,4.4345 h 1.0827 l 0.0175,-8.1158 c -2.7305,0.1706 -4.8813,0.4206 -18.3261,0.4206"
           fill="#ffffff"
           id="path8" />
        <path
           d="m 538.0834,150.6699 c 1.2533,0.1706 3.0978,0.2501 4.921,0.2501 7.3751,0 9.6976,-4.2425 9.6976,-7.9975 0,-5.3107 -3.5456,-8.6023 -10,-8.6023 -1.3366,0 -3.2733,0.1666 -4.6186,0.4206 v 15.929 z m 0,16.0561 c 0,2.0199 1.2833,3.1153 3.6541,3.6193 v 1.0963 c -1.3143,0 -5.6131,-0.1716 -6.8402,-0.1716 -1.0517,0 -5.2496,0.1716 -6.5727,0.1716 v -1.0963 c 2.1993,-0.4207 3.4962,-1.5073 3.4962,-3.6193 v -30.2142 c 0,-1.8581 -1.0119,-3.028 -3.4875,-3.4487 v -1.0866 c 1.3143,0 5.4725,0.1658 6.6473,0.1658 1.924,0 7.3926,-0.3237 9.5444,-0.3237 9.4214,0 14.6661,3.8955 14.6661,10.5738 0,5.2495 -3.9042,8.799 -9.9167,10.2491 0,0 1.3726,0.7977 2.7392,2.3882 1.6613,1.9589 6.1481,8.3969 8.0101,10.6484 1.8581,2.2574 4.2377,4.7766 6.7879,4.891 v 0.8801 c -1.2223,0.2675 -3.1812,0.5001 -4.6797,0.5001 -3.1995,0 -5.7535,-1.1302 -8.2339,-4.132 -2.147,-2.6122 -5.7886,-8.0324 -7.9317,-10.7715 -1.3715,-1.7438 -3.0328,-3.1065 -6.0734,-3.6067 -0.5874,-0.1008 -1.1437,-0.1842 -1.8096,-0.2627 v 13.5495 z"
           fill="#ffffff"
           id="path9" />
        <path
           d="m 444.6967,136.945 c -0.8587,-1.9017 -2.1779,-3.2955 -4.4257,-3.7899 v -1.1088 c 1.3977,0 6.2402,0.1754 7.3045,0.1754 0.978,0 5.2108,-0.1754 6.6482,-0.1754 v 1.0778 c -1.2755,0.2453 -2.7305,0.9509 -2.7305,2.2564 0,0.9335 0.5652,2.2041 1.6478,4.5973 l 10.1493,23.093 9.6055,-23.1328 c 0.758,-1.8668 1.3057,-3.313 1.3057,-4.417 0,-1.2222 -1.1263,-2.0684 -2.7217,-2.397 v -1.0778 c 1.2755,0 4.4044,0.1754 5.3775,0.1754 0.8888,0 4.5614,-0.1754 5.964,-0.1754 v 1.1088 c -2.397,0.6485 -3.8567,1.9677 -5.2021,5.0916 l -14.1369,33.3343 h -3.1986 l -15.5869,-34.6361 z"
           fill="#ffffff"
           id="path10" />
        <path
           d="m 480.9408,31.8195 c -1.6342,-3.6067 -4.1408,-6.2358 -8.3871,-7.1779 v -2.099 c 2.6422,0 11.4152,0.3155 13.4312,0.3155 1.8581,0 10.3547,-0.3155 13.063,-0.3155 v 2.0461 c -2.4019,0.4692 -5.1624,1.8102 -5.1624,4.2862 0,1.7481 1.0865,4.163 3.1027,8.6896 l 19.2507,43.7636 18.2155,-43.8383 c 1.42,-3.5495 2.4803,-6.262 2.4803,-8.361 0,-2.3311 -2.1556,-3.9129 -5.1749,-4.5401 v -2.0461 c 2.4096,0 8.2688,0.3155 10.1308,0.3155 1.6924,0 8.6508,-0.3155 11.2978,-0.3155 v 1.9807 c -4.5401,1.2314 -7.318,3.8388 -9.8468,9.7591 l -26.7791,63.1851 h -6.0598 z"
           fill="#ffffff"
           id="path11" />
        <path
           d="m 221.7283,95.0618 c 3.4966,-0.7978 5.9552,-2.3883 5.9552,-6.3498 V 30.7853 c 0,-3.8034 -2.2875,-5.3814 -5.9552,-6.3367 v -2.0553 c 1.8358,0 9.7455,0.3112 11.6696,0.3112 2.2172,0 10.5079,-0.3112 12.3311,-0.3112 v 2.0553 c -3.4927,0.7933 -6.0827,2.3796 -6.0827,6.3367 v 24.1979 h 43.1545 V 30.7853 c 0,-3.957 -2.3001,-5.5433 -5.9465,-6.3367 v -2.0553 c 1.8232,0 9.9651,0.3112 12.1779,0.3112 1.9104,0 10.0044,-0.3112 11.8097,-0.3112 v 2.0553 c -3.4967,0.7933 -6.0866,2.3796 -6.0866,6.3367 V 88.712 c 0,3.8034 2.4319,5.3989 6.0866,6.3498 v 1.8968 c -1.8053,0 -9.8993,-0.157 -11.8097,-0.157 -2.2129,0 -10.3547,0.157 -12.1779,0.157 v -1.8968 c 3.471,-0.7978 5.9465,-2.3883 5.9465,-6.3498 V 61.3367 H 239.6463 V 88.712 c 0,3.9614 2.4275,5.3989 6.0827,6.3498 v 1.8968 c -1.8232,0 -10.1138,-0.157 -12.3311,-0.157 -1.924,0 -9.8338,0.157 -11.6696,0.157 z"
           fill="#ffffff"
           id="path12" />
        <path
           d="m 739.7902,91.2448 c 2.7033,0.4909 7.6989,0.7977 11.6381,0.7977 22.301,0 33.909,-13.4226 33.909,-32.1426 0,-19.4083 -12.2477,-33.0629 -33.0977,-33.0629 -4.26,0 -9.5832,0.3198 -12.4494,0.7846 z m -18.8999,3.817 c 4.478,-0.7978 6.9458,-2.5768 6.9458,-6.6653 V 30.7853 c 0,-3.9701 -2.4328,-5.5433 -6.7617,-6.3367 v -2.0553 c 2.4931,0 10.6087,0.3112 12.8565,0.3112 3.6289,0 13.7511,-0.7928 21.6303,-0.7928 26.5465,0 42.6636,14.8245 42.6636,37.3659 0,21.9104 -16.7704,38.1463 -44.1407,38.1463 -7.8918,0 -17.2522,-0.6222 -20.915,-0.6222 -2.2265,0 -9.7945,0.315 -12.2788,0.315 v -2.0548 z"
           fill="#ffffff"
           id="path13" />
        <path
           d="m 420.4066,57.8052 c 2.3621,0.3112 5.8545,0.4687 9.3167,0.4687 13.9614,0 18.3473,-8.0368 18.3473,-15.1357 0,-10.0829 -6.7132,-16.3012 -18.9435,-16.3012 -2.5201,0 -6.1917,0.3198 -8.7206,0.7846 v 30.1836 z m 0,30.3809 c 0,3.8388 2.4319,5.9247 6.9061,6.8756 v 2.0548 c -2.493,0 -10.6135,-0.315 -12.9485,-0.315 -1.9725,0 -9.9389,0.315 -12.4279,0.315 v -2.0548 c 4.1543,-0.7978 6.6036,-2.8661 6.6036,-6.8756 V 30.9869 c 0,-3.5189 -1.9017,-5.7449 -6.595,-6.5382 v -2.0553 c 2.4939,0 10.3636,0.3112 12.5725,0.3112 3.6503,0 14.0012,-0.6087 18.0847,-0.6087 17.8531,0 27.791,7.384 27.791,20.0126 0,9.9563 -7.4139,16.6565 -18.7942,19.4214 0,0 2.5812,1.5033 5.1789,4.5313 3.1511,3.7027 11.8454,16.1481 15.3601,20.4114 3.5136,4.2682 8.0227,9.0362 12.8438,9.2552 v 1.6788 c -2.3098,0.4991 -6.0085,0.9246 -8.835,0.9246 -6.086,0 -10.9198,-2.1305 -15.6217,-7.8268 -4.0535,-4.9433 -11.1438,-15.4512 -15.206,-20.6398 -2.5937,-3.3043 -5.7226,-5.8806 -11.4675,-6.8314 -1.1311,-0.1928 -2.1954,-0.3421 -3.4448,-0.4822 v 25.6353 z"
           fill="#ffffff"
           id="path14" />
        <path
           d="m 655.7067,57.8052 c 2.3921,0.3112 5.8631,0.4687 9.3292,0.4687 13.9663,0 18.3396,-8.0368 18.3396,-15.1357 0,-10.0829 -6.718,-16.3012 -18.926,-16.3012 -2.5425,0 -6.1966,0.3198 -8.7428,0.7846 z m 0,30.3809 c 0,3.8388 2.4406,5.9247 6.9196,6.8756 v 2.0548 c -2.4891,0 -10.6009,-0.315 -12.9359,-0.315 -2.0073,0 -9.9476,0.315 -12.4454,0.315 v -2.0548 c 4.1455,-0.7978 6.5998,-2.8661 6.5998,-6.8756 V 30.9869 c 0,-3.5189 -1.9192,-5.7449 -6.5862,-6.5382 v -2.0553 c 2.5017,0 10.346,0.3112 12.5724,0.3112 3.6581,0 14.0041,-0.6087 18.0625,-0.6087 17.8831,0 27.791,7.384 27.791,20.0126 0,9.9563 -7.3966,16.6565 -18.7855,19.4214 0,0 2.5938,1.5033 5.1701,4.5313 3.1812,3.7027 11.8756,16.1481 15.3766,20.4114 3.5282,4.2682 8.0373,9.0362 12.8312,9.2552 v 1.6788 c -2.2788,0.4991 -5.9988,0.9246 -8.7952,0.9246 -6.0996,0 -10.9547,-2.1305 -15.6441,-7.8268 -4.0535,-4.9433 -11.1215,-15.4512 -15.2186,-20.6398 -2.5948,-3.3043 -5.7139,-5.8806 -11.4461,-6.8314 -1.1477,-0.1928 -2.2003,-0.3421 -3.4661,-0.4822 v 25.6353 z"
           fill="#ffffff"
           id="path15" />
        <path
           d="M 359.781,67.1346 347.8968,39.4443 336.8276,67.1346 Z m -47.5851,27.9136 c 4.7238,-1.104 7.3181,-4.163 9.0404,-8.2558 l 23.8994,-57.5056 c 1.0168,-2.3795 2.2003,-7.27 2.2003,-7.27 h 6.687 c 0,0 1.1961,4.9035 2.191,7.2875 l 25.2579,57.6461 c 1.8014,3.9701 3.7511,6.8358 8.7729,8.0978 l -0.0126,1.9153 c -2.7348,0 -11.2358,-0.158 -13.1686,-0.158 -1.9235,0 -10.0437,0.158 -12.7735,0.158 l 0.009,-1.9153 c 3.6765,-0.9024 4.8382,-2.7735 4.8382,-4.5837 0,-1.5377 -0.6359,-3.2732 -1.4069,-5.0741 L 362.301,73.0065 h -27.8308 l -4.9733,12.4537 c -0.5564,1.4113 -1.2184,3.4051 -1.2184,4.7505 0,2.0771 1.0866,3.7336 5.2584,4.8376 l -0.009,1.9153 c -2.4711,0 -8.9964,-0.158 -10.5254,-0.158 l -10.8108,0.158 0.004,-1.9153 z"
           fill="#ffffff"
           id="path16" />
        <path
           d="m 596.5577,67.1346 -11.893,-27.6903 -11.0604,27.6903 z m -47.5855,27.9136 c 4.7203,-1.104 7.3228,-4.163 9.0365,-8.2558 l 23.908,-57.5056 c 1.0169,-2.3795 2.2129,-7.27 2.2129,-7.27 h 6.687 c 0,0 1.1835,4.9035 2.1741,7.2875 l 25.267,57.6461 c 1.7874,3.9701 3.755,6.8358 8.7555,8.0978 l -0.009,1.9153 c -2.7256,0 -11.2358,-0.158 -13.1821,-0.158 -1.9057,0 -10.0213,0.158 -12.7557,0.158 v -1.9153 c 3.6988,-0.9024 4.8425,-2.7735 4.8425,-4.5837 0,-1.5377 -0.6271,-3.2732 -1.3851,-5.0741 l -5.4512,-12.3839 h -27.8307 l -4.9783,12.4537 c -0.5563,1.4113 -1.2135,3.4051 -1.2135,4.7505 0,2.0771 1.0865,3.7336 5.2583,4.8376 v 1.9153 c -2.4803,0 -8.9958,-0.158 -10.5341,-0.158 l -10.8112,0.158 0.009,-1.9153 z"
           fill="#ffffff"
           id="path17" />
      </g>
      <g
         id="g73">
        <path
           d="m 1.2373,1.0646 h 166.2233 v 62.794 c 0,28.7655 -10.7091,89.7824 -82.485,135.1901 0,0 -77.783,-32.4809 -83.7383,-135.1901 z"
           fill="#a51c30"
           id="path18" />
        <path
           d="m 84.8064,200 -0.4683,-0.1944 C 83.555,199.478 5.9275,165.916 0.0037,63.814 L 0,0 h 168.1782 v 63.7566 c 0,25.1095 -8.086,88.6236 -82.9423,135.9731 z M 1.9511,1.9511 v 61.8055 c 5.6165,96.7558 76.2817,131.1341 82.6794,134.046 73.6401,-46.7998 81.5928,-109.3068 81.5928,-134.046 V 1.9511 Z"
           fill="#1f1f1f"
           id="path19" />
        <path
           d="m 127.0489,81.7494 c 0,0 -1.4791,4.7242 -8.073,-0.1296 L 96.3507,81.0756 c 0,0 -2.9637,0.9534 -3.3673,-2.1492 0,0 0.5442,-6.1941 0.2647,-6.7346 0,0 0.1388,-1.7494 -2.8305,-1.7494 0,0 -4.5817,0.5368 -4.7094,-3.5061 0,0 -0.8034,-4.3096 5.5202,-4.1744 0,0 2.0196,0.9441 2.1585,-1.6198 0,0 -0.2703,-17.5122 -0.1388,-18.8487 0,0 0.5443,-1.6142 -2.5565,-1.8845 0,0 -4.4465,0.9367 -4.9834,-2.0159 0,0 -0.2721,-4.4465 2.6953,-4.7205 0,0 3.6376,0.274 4.3077,-0.6738 0,0 0.8164,0.5331 0.6757,-2.6879 l 0.1407,-5.5295 c 0,0 0.3887,-1.4791 2.6842,-1.3384 0,0 4.1763,0.2684 4.7187,-0.1407 0,0 0.9367,-1.2088 1.2125,-1.7531 0,0 2.1548,-0.1277 2.5546,0.4073 0,0 3.2377,2.1548 15.4889,1.3458 0,0 1.8901,0 2.2899,0.5442 0,0 2.2881,1.7457 3.6376,-0.1351 0,0 2.0141,-0.4091 8.0767,-0.2684 0,0 6.5995,1.7475 11.1774,-2.0215 l 1.4847,0.2647 c 0,0 1.8845,3.0952 3.2322,2.1603 0,0 4.0393,-0.4036 4.7131,0.4017 0,0 1.3403,2.0122 0.6701,7.2752 0,0 -0.8034,2.2844 3.1044,2.2844 0,0 4.4465,-0.809 3.8986,3.3636 0,0 1.2125,4.7187 -6.1885,4.0485 0,0 -0.946,1.344 -0.8145,2.288 0,0 -0.1314,15.35 -0.2684,17.1049 0,0 -0.1277,2.425 3.0989,2.2936 0,0 4.3133,-0.2795 4.4521,3.6283 0,0 0.535,5.1241 -5.6646,4.1744 0,0 -1.8864,0.2703 -2.1585,1.4828 l -0.2629,6.7346 c 0,0 0.1333,3.3673 -3.6357,2.5583 -0.5387,0 -21.0072,0.4054 -22.7603,-0.1314 0,0 -0.9515,-0.137 -1.2199,0.3961"
           fill="#ffffff"
           id="path20" />
        <path
           d="m 83.5491,104.2625 c 0,0 0.9404,-0.398 1.2088,-1.0644 0,0 2.8305,-0.2758 3.2303,-0.6757 l 8.8949,0.6757 c 0,0 8.7487,0.6664 12.5214,-2.0382 0,0 1.3588,0 2.3029,0.4128 0,0 1.8752,0.4054 2.4102,1.2088 l 5.1241,-0.137 c 0,0 2.9619,0.9497 2.6879,2.8416 V 107.9 c 0,0 -0.5442,4.8501 0.8053,5.1204 h 3.9171 c 0,0 3.2285,1.4846 2.8249,3.3673 0,0 0.1351,2.6879 -2.6842,3.2303 0,0 -2.8397,0.8034 -3.7727,0.6794 0,0 -0.9497,1.2088 -1.0904,2.6879 l -0.3961,17.6473 c 0,0 -0.2777,1.8808 2.5546,1.6142 0,0 4.1689,-0.3999 5.3888,1.8919 0,0 1.0811,3.9023 -1.0755,4.5761 l -1.6087,0.8016 -3.5136,0.5498 c 0,0 -1.4754,0.1333 -1.6105,2.6879 v 4.7094 c 0,0 0.1351,3.2377 -2.4269,3.2377 l -3.769,0.2703 c 0,0 -0.9441,0.8034 -2.8286,0.2647 0,0 -22.8936,0.411 -23.7063,0.1333 l -2.7009,0.5461 c 0,0 -2.9563,2.6953 -5.3832,0.6646 l -1.8845,-1.4846 c 0,0 -1.344,0.274 -1.8827,0.1407 -0.5405,-0.1407 -25.3242,0.274 -25.3242,0.274 0,0 -5.2537,0.5405 -5.6535,-1.2144 0,0 -0.6701,-6.8716 -0.4017,-7.6861 0,0 0,-2.0104 -1.2144,-2.1455 0,0 -5.2518,-0.2647 -5.3869,-0.8127 0,0 -2.8342,-2.0159 -2.0233,-4.03 0,0 0.9478,-2.7046 3.7764,-2.9693 0,0 4.3059,0.6812 4.3059,-0.5387 0,0 0.274,-0.809 0.274,-2.1455 0,0 0.2684,-16.0387 0.1333,-17.116 0,0 0.3999,-2.0215 -1.3495,-2.0215 0,0 -1.8882,0.535 -3.097,-0.2684 0,0 -3.2285,0.1351 -3.9041,-2.425 0,0 -0.5442,-1.6142 0.2647,-2.9693 0,0 1.4809,-2.9619 5.7924,-2.0141 0,0 2.4288,0.6794 2.6935,-1.0681 l -0.1277,-6.4699 c 0,0 -0.5461,-1.7512 2.8231,-2.6935 0,0 4.3133,1.2107 5.6535,-0.9441 0,0 1.4846,-2.9674 2.6842,-0.9497 0,0 2.5694,2.4306 9.5762,2.1696 0,0 12.1234,-0.9497 12.3881,-0.4165 0,0 2.96,0.4165 3.769,1.3514 l 0.8108,0.1296 z"
           fill="#ffffff"
           id="path21" />
        <path
           d="m 46.9262,81.7494 c 0,0 -1.4846,4.7242 -8.0823,-0.1351 L 16.2187,81.0756 c 0,0 -2.9637,0.9534 -3.3692,-2.1511 0,0 0.5405,-6.1922 0.2647,-6.7328 0,0 0.1407,-1.7531 -2.8231,-1.7531 0,0 -4.578,0.5461 -4.7094,-3.4969 0,0 -0.8108,-4.3188 5.5184,-4.18 0,0 2.0141,0.9441 2.1548,-1.6105 0,0 -0.2721,-17.5159 -0.1407,-18.8654 0,0 0.5498,-1.5994 -2.5546,-1.8715 0,0 -4.4484,0.9311 -4.9778,-2.0326 0,0 -0.274,-4.4354 2.6879,-4.7094 0,0 3.6339,0.274 4.3133,-0.6627 0,0 0.8071,0.5239 0.672,-2.7101 l 0.1351,-5.5128 c 0,0 0.4036,-1.4846 2.6879,-1.3495 0,0 4.1781,0.2629 4.7224,-0.1351 0,0 0.946,-1.2088 1.2014,-1.7531 0,0 2.164,-0.1222 2.5676,0.4036 0,0 3.2285,2.1548 15.4981,1.3495 0,0 1.8752,0 2.2844,0.5405 0,0 2.2844,1.7475 3.6283,-0.1425 0,0 2.0215,-0.398 8.0841,-0.2629 0,0 6.5902,1.7438 11.1756,-2.0104 l 1.4791,0.2666 c 0,0 1.8827,3.0933 3.2396,2.1492 0,0 4.0374,-0.4054 4.7187,0.4054 0,0 1.3421,2.0215 0.6627,7.2752 0,0 -0.8034,2.2899 3.0989,2.2899 0,0 4.4447,-0.8034 3.9078,3.3581 0,0 1.2162,4.7187 -6.1922,4.0485 0,0 -0.9478,1.3495 -0.8145,2.288 0,0 -0.1333,15.35 -0.2684,17.1049 0,0 -0.1296,2.4195 3.0989,2.2936 0,0 4.3114,-0.2832 4.4465,3.6339 0,0 0.5313,5.1185 -5.6535,4.1689 0,0 -1.8919,0.2758 -2.1622,1.4828 l -0.2647,6.7328 c 0,0 0.1407,3.3692 -3.6413,2.5657 -0.5387,0 -21.0054,0.398 -22.7584,-0.1314 0,0 -0.9367,-0.1425 -1.2107,0.3906"
           fill="#ffffff"
           id="path22" />
        <path
           d="m 127.0489,81.7494 c 0,0 -1.4791,4.7242 -8.073,-0.1296 L 96.3507,81.0756 c 0,0 -2.9637,0.9534 -3.3673,-2.1492 0,0 0.5442,-6.1941 0.2647,-6.7346 0,0 0.1388,-1.7494 -2.8305,-1.7494 0,0 -4.5817,0.5368 -4.7094,-3.5061 0,0 -0.8034,-4.3096 5.5202,-4.1744 0,0 2.0196,0.9441 2.1585,-1.6198 0,0 -0.2703,-17.5122 -0.1388,-18.8487 0,0 0.5443,-1.6142 -2.5565,-1.8845 0,0 -4.4465,0.9367 -4.9834,-2.0159 0,0 -0.2721,-4.4465 2.6953,-4.7205 0,0 3.6376,0.274 4.3077,-0.6738 0,0 0.8164,0.5331 0.6757,-2.6879 l 0.1407,-5.5295 c 0,0 0.3887,-1.4791 2.6842,-1.3384 0,0 4.1763,0.2684 4.7187,-0.1407 0,0 0.9367,-1.2088 1.2125,-1.7531 0,0 2.1548,-0.1277 2.5546,0.4073 0,0 3.2377,2.1548 15.4889,1.3458 0,0 1.8901,0 2.2899,0.5442 0,0 2.2881,1.7457 3.6376,-0.1351 0,0 2.0141,-0.4091 8.0767,-0.2684 0,0 6.5995,1.7475 11.1774,-2.0215 l 1.4847,0.2647 c 0,0 1.8845,3.0952 3.2322,2.1603 0,0 4.0393,-0.4036 4.7131,0.4017 0,0 1.3403,2.0122 0.6701,7.2752 0,0 -0.8034,2.2844 3.1044,2.2844 0,0 4.4465,-0.809 3.8986,3.3636 0,0 1.2125,4.7187 -6.1885,4.0485 0,0 -0.946,1.344 -0.8145,2.288 0,0 -0.1314,15.35 -0.2684,17.1049 0,0 -0.1277,2.425 3.0989,2.2936 0,0 4.3133,-0.2795 4.4521,3.6283 0,0 0.535,5.1241 -5.6646,4.1744 0,0 -1.8864,0.2703 -2.1585,1.4828 l -0.2629,6.7346 c 0,0 0.1333,3.3673 -3.6357,2.5583 -0.5387,0 -21.0072,0.4054 -22.7603,-0.1314 0,0 -0.9515,-0.137 -1.2199,0.3961"
           fill="#1f1f1f"
           id="path23" />
        <path
           d="m 127.0489,81.7494 c 0,0 -1.4789,4.7246 -8.0738,-0.1295 L 96.3506,81.0761 c 0,0 -2.9637,0.9524 -3.3665,-2.1494 0,0 0.5438,-6.1949 0.2647,-6.7358 0,0 0.1381,-1.7494 -2.8313,-1.7494 0,0 -4.5807,0.5381 -4.7102,-3.5046 0,0 -0.8028,-4.3102 5.5216,-4.175 0,0 2.0199,0.9438 2.158,-1.6199 0,0 -0.2705,-17.5114 -0.1381,-18.8494 0,0 0.5438,-1.6142 -2.5579,-1.8847 0,0 -4.4455,0.938 -4.9835,-2.0141 0,0 -0.2705,-4.4484 2.6961,-4.7217 0,0 3.6369,0.2733 4.3074,-0.6733 0,0 0.8172,0.5323 0.6762,-2.6874 l 0.141,-5.5302 c 0,0 0.3884,-1.479 2.6845,-1.338 0,0 4.175,0.2676 4.7188,-0.141 0,0 0.9351,-1.2085 1.2114,-1.7523 0,0 2.1551,-0.1295 2.5551,0.4057 0,0 3.237,2.1551 15.4887,1.3466 0,0 1.8904,0 2.2904,0.5438 0,0 2.2875,1.7465 3.6369,-0.1352 0,0 2.0141,-0.4086 8.0767,-0.2676 0,0 6.6006,1.7465 11.1784,-2.0228 l 1.4847,0.2647 c 0,0 1.8846,3.096 3.2312,2.1609 0,0 4.0398,-0.4028 4.7131,0.4028 0,0 1.3408,2.0113 0.6704,7.2739 0,0 -0.8028,2.2846 3.1046,2.2846 0,0 4.4455,-0.8085 3.8988,3.3636 0,0 1.2114,4.7188 -6.1891,4.0484 0,0 -0.9466,1.3437 -0.8143,2.2875 0,0 -0.1324,15.3506 -0.2676,17.1057 0,0 -0.1295,2.4256 3.0989,2.2932 0,0 4.3131,-0.2791 4.4512,3.6283 0,0 0.5352,5.1245 -5.6655,4.175 0,0 -1.8847,0.2705 -2.158,1.4818 l -0.2618,6.7358 c 0,0 0.1324,3.3665 -3.6369,2.5579 -0.5381,0 -21.0074,0.4057 -22.7597,-0.1324 0,0 -0.9524,-0.1352 -1.22,0.3971 z"
           fill="none"
           stroke="#1f1f1f"
           stroke-width="0.3109"
           id="path24" />
        <path
           d="m 101.5983,26.2613 c 0,0 0.2684,2.699 0.2684,3.3784 0,0.672 -0.398,38.9193 -0.398,38.9193 0,0 0.398,2.96 -2.1492,4.441 0,0 -0.6812,0.2647 -0.8145,-1.6161 l 0.2647,-40.3984 c 0,0 0.2703,-4.9889 2.8286,-4.7242"
           fill="#ffffff"
           id="path25" />
        <path
           d="m 101.5984,26.2612 c 0,0 0.2676,2.6989 0.2676,3.378 0,0.6733 -0.3971,38.9188 -0.3971,38.9188 0,0 0.3971,2.9608 -2.1494,4.4426 0,0 -0.6819,0.2647 -0.8143,-1.6171 l 0.2647,-40.3977 c 0,0 0.2705,-4.9893 2.8284,-4.7246 z"
           fill="none"
           stroke="#1f1f1f"
           stroke-width="0.3264"
           id="path26" />
        <path
           d="m 97.1586,73.4053 c 0,0 0.2647,-37.9807 0.1351,-38.6564 -0.1351,-0.6646 0.1296,0.5424 0.1296,0.5424 0,0 -0.3999,-6.5995 1.3458,-9.3022 0,0 -0.5405,-2.2788 -3.6357,0.5479 l -0.1296,5.5184 c 0,0 0,3.1044 -2.8286,2.9693 0,0 -3.234,-0.1444 -4.7187,1.3384 0,0 -0.809,2.9656 2.2936,2.4343 0,0 4.8445,0 5.1185,2.0104 l -0.274,20.3427 c 0,0 1.0829,3.3747 -2.6879,3.3747 0,0 -4.5891,-0.2851 -4.4502,2.5472 0,0 0.9515,2.4232 4.8538,1.6161 0,0 2.8231,0.5331 2.6935,3.2377 v 5.113 c 0,0 -0.2758,2.0289 2.4195,2.1603 h 21.0109 c 0,0 1.0718,0.1351 1.0718,-1.2162 0,0 -0.1296,-1.0755 -1.7438,-1.0755 l -17.5085,-0.2684 c 0,0 -2.8305,0.946 -3.0952,-3.234"
           fill="#ffffff"
           id="path27" />
        <path
           d="m 101.1992,73.3424 c 0,0 -0.5387,1.8845 1.4791,1.4884 h 13.8691 l 3.769,0.8127 c 0,0 3.9023,-0.9478 0,-3.0989 0,0 -12.3863,0.124 -13.4655,-0.1351 0,0 -2.5583,-0.6757 -3.1044,-0.8108 0,0 -1.3384,-0.535 -2.5472,1.7438"
           fill="#ffffff"
           id="path28" />
        <path
           d="m 101.1993,73.3424 c 0,0 -0.5381,1.8847 1.4789,1.4876 h 13.8687 l 3.7693,0.8143 c 0,0 3.9017,-0.9495 0,-3.0989 0,0 -12.3869,0.1237 -13.4659,-0.1352 0,0 -2.5579,-0.6762 -3.1046,-0.8114 0,0 -1.338,-0.5352 -2.5464,1.7437 z"
           fill="none"
           stroke="#1f1f1f"
           stroke-width="0.3264"
           id="path29" />
        <path
           d="m 124.2194,75.2262 c 0,0 -2.5583,0 -2.4232,3.3747 0,0 0.2684,2.5583 2.9638,2.5583 0,0 2.4232,-0.4054 2.1622,-3.0952 0,0 -1.4884,-3.371 -2.7027,-2.8379"
           fill="#ffffff"
           id="path30" />
        <path
           d="m 126.1132,73.8902 c 0,0 1.2088,-1.344 2.0196,-1.344 0,0 13.4711,1.2088 15.748,-0.4017 0,0 2.0289,-0.4091 2.5694,0 0,0 2.0178,1.6105 2.0178,2.5491 0,0 -0.137,1.2218 -2.5583,0.5313 0,0 -15.2241,0.1462 -16.0294,0.1462 0,0 -4.1818,0.9386 -3.7672,-1.481"
           fill="#ffffff"
           id="path31" />
        <path
           d="m 126.1132,73.8903 c 0,0 1.2085,-1.3437 2.0199,-1.3437 0,0 13.4717,1.2085 15.7476,-0.4028 0,0 2.0285,-0.4086 2.5695,0 0,0 2.017,1.6113 2.017,2.5493 0,0 -0.1352,1.2229 -2.5579,0.5323 0,0 -15.2239,0.1467 -16.0296,0.1467 0,0 -4.1808,0.938 -3.7664,-1.4818 z"
           fill="none"
           stroke="#1f1f1f"
           stroke-width="0.3264"
           id="path32" />
        <path
           d="m 127.8612,78.254 c 0,0 0,-1.0811 1.8882,-1.0811 l 18.8487,-0.1333 c 0,0 1.7586,0.9441 1.7586,-2.2881 0,0 0.6849,-14.6762 0.7534,-30.8463 0.0167,-4.8112 0.2388,-9.8612 0.0611,-14.5373 0,0 -0.4147,-2.0196 -0.9552,-2.4343 0,0 0,-2.1492 2.2899,-1.3403 0,0 2.0252,0.137 1.4847,3.2433 l 0.137,4.6946 c 0,0 -0.4073,2.0289 3.2266,1.4884 0,0 3.6357,0.5405 3.7709,1.8808 0,0 1.0792,2.7046 -3.2248,2.4287 h -3.1044 c 0,0 -1.3458,0.8053 -0.9441,2.4251 l -0.4017,19.5355 c 0,0 -0.2721,3.3636 2.9637,3.2359 0,0 3.3636,-0.1407 4.0356,0.9385 0,0 2.3047,3.3673 -2.6879,3.0933 0,0 -3.0989,-0.1351 -3.7709,0.4091 0,0 -0.5405,0.6664 -0.9441,7.003 0,0 0.274,3.7727 -2.5546,3.3636 0,0 -18.7321,0.2666 -20.4722,-0.1333 0,0 -1.8901,0.5424 -2.1585,-0.946"
           fill="#ffffff"
           id="path33" />
        <path
           d="m 103.6228,25.0359 -0.4091,43.2455 c 0,0 -0.1296,2.0122 3.2377,2.4176 0,0 3.9041,0.3999 4.839,0 0,0 2.575,-0.1388 9.1615,0.1388 0,0 1.629,1.6253 1.7586,-0.4128 0,0 1.07,-35.004 0.5387,-42.2866 0,0 -0.1388,-3.1026 -2.4325,-3.234 0,0 -10.2278,0.8182 -11.1719,0 l -4.043,-1.0681 c 0,0 -1.6179,0.1296 -1.4791,1.1996"
           fill="#ffffff"
           id="path34" />
        <path
           d="m 124.8995,27.2009 c 0,0 -0.4054,20.3334 -0.2684,21.0128 l -0.2703,17.1012 -0.5424,5.9256 c 0,0 0.8127,1.2181 1.481,0.4091 0,0 4.317,-1.0922 7.0067,-0.6701 0,0 8.6265,0.7997 10.3703,-0.5516 0,0 1.3514,0.672 1.7457,-1.4791 0,0 0.5331,-37.7049 0.2814,-38.3787 0,0 0.522,-5.3999 0.2518,-5.9293 0,0 -0.1166,-1.207 -2.4121,-0.1351 0,0 0.2629,1.0774 -12.5251,0.6646 0,0 -4.8446,-0.1333 -5.1185,2.0307"
           fill="#ffffff"
           id="path35" />
        <path
           d="m 146.3179,26.67 -0.1296,42.5532 c 0,0 1.0737,3.7783 2.8194,3.3803 0,0 0.2629,-0.8145 0.3943,-2.1603 l 0.5498,-40.5446 c 0,0 -1.3551,-6.4569 -3.6339,-3.2285"
           fill="#ffffff"
           id="path36" />
        <path
           d="m 146.3178,26.6701 -0.1295,42.5529 c 0,0 1.0733,3.7779 2.8198,3.3809 0,0 0.2618,-0.8143 0.3942,-2.1609 l 0.5496,-40.5445 c 0,0 -1.3552,-6.4567 -3.6341,-3.2284 z"
           fill="none"
           stroke="#1f1f1f"
           stroke-width="0.3264"
           id="path37" />
        <path
           d="m 129.783,39.4085 c -0.4091,-1.0792 2.2899,-1.2107 2.2899,-1.2107 l 1.3477,0.2703 c 0.9423,-0.1388 1.8864,0.2703 1.8864,0.2703 0.9423,1.4791 -0.6757,2.2881 -0.6757,2.2881 l -0.535,1.7494 c -0.1388,1.4865 0,14.2856 0,14.2856 0.2666,0.6646 1.3495,1.8734 1.3495,1.8734 0,1.2144 -1.4884,0.9515 -1.4884,0.9515 l -3.9097,0.1351 c -1.2107,-0.1351 -0.8034,-1.4865 -0.8034,-1.4865 1.344,-0.6738 1.7494,-3.1063 1.7494,-3.1063 V 42.102 Z"
           fill="#1f1f1f"
           id="path38" />
        <path
           d="m 111.6034,51.9374 -0.2721,4.1744 1.2088,2.0141 c 0.8145,1.0829 -0.5424,1.8938 -0.5424,1.8938 l -4.304,-0.4054 c -0.8016,-0.4054 0,-1.7531 0,-1.7531 1.0829,-0.6701 1.2125,-2.425 1.2125,-2.425 l -0.1296,-7.812 0.1296,-5.6591 c 0,-0.6738 -1.0737,-1.8827 -1.0737,-1.8827 -0.9404,-0.1296 -0.6757,-1.344 -0.6757,-1.344 0.2703,-0.6757 2.5509,-0.2703 2.5509,-0.2703 h 5.6628 c 5.3869,1.7475 4.5817,5.6535 4.5817,5.6535 0.4073,3.906 -3.7672,5.5313 -3.7672,5.5313 l -0.2758,2.1492 3.9097,6.1885 c 0.6757,0.5442 0.5405,1.0848 0.5405,1.0848 -0.5405,1.4828 -2.7009,0 -2.7009,0 l -4.8427,-7.5436 c -0.4054,-0.5387 -1.2125,0.4054 -1.2125,0.4054 m 0.1333,-10.6462 c 0.1296,2.973 0.1296,7.0123 0.1296,7.0123 2.5657,2.0159 4.043,-0.8182 4.043,-0.8182 3.3636,-3.2211 0,-6.1941 -0.5387,-6.9938 -0.5498,-0.8182 -3.234,-0.1444 -3.234,-0.1444 z"
           fill="#1f1f1f"
           id="path39" />
        <path
           d="m 83.5491,104.2625 c 0,0 0.9404,-0.398 1.2088,-1.0644 0,0 2.8305,-0.2758 3.2303,-0.6757 l 8.8949,0.6757 c 0,0 8.7487,0.6664 12.5214,-2.0382 0,0 1.3588,0 2.3029,0.4128 0,0 1.8752,0.4054 2.4102,1.2088 l 5.1241,-0.137 c 0,0 2.9619,0.9497 2.6879,2.8416 V 107.9 c 0,0 -0.5442,4.8501 0.8053,5.1204 h 3.9171 c 0,0 3.2285,1.4846 2.8249,3.3673 0,0 0.1351,2.6879 -2.6842,3.2303 0,0 -2.8397,0.8034 -3.7727,0.6794 0,0 -0.9497,1.2088 -1.0904,2.6879 l -0.3961,17.6473 c 0,0 -0.2777,1.8808 2.5546,1.6142 0,0 4.1689,-0.3999 5.3888,1.8919 0,0 1.0811,3.9023 -1.0755,4.5761 l -1.6087,0.8016 -3.5136,0.5498 c 0,0 -1.4754,0.1333 -1.6105,2.6879 v 4.7094 c 0,0 0.1351,3.2377 -2.4269,3.2377 l -3.769,0.2703 c 0,0 -0.9441,0.8034 -2.8286,0.2647 0,0 -22.8936,0.411 -23.7063,0.1333 l -2.7009,0.5461 c 0,0 -2.9563,2.6953 -5.3832,0.6646 l -1.8845,-1.4846 c 0,0 -1.344,0.274 -1.8827,0.1407 -0.5405,-0.1407 -25.3242,0.274 -25.3242,0.274 0,0 -5.2537,0.5405 -5.6535,-1.2144 0,0 -0.6701,-6.8716 -0.4017,-7.6861 0,0 0,-2.0104 -1.2144,-2.1455 0,0 -5.2518,-0.2647 -5.3869,-0.8127 0,0 -2.8342,-2.0159 -2.0233,-4.03 0,0 0.9478,-2.7046 3.7764,-2.9693 0,0 4.3059,0.6812 4.3059,-0.5387 0,0 0.274,-0.809 0.274,-2.1455 0,0 0.2684,-16.0387 0.1333,-17.116 0,0 0.3999,-2.0215 -1.3495,-2.0215 0,0 -1.8882,0.535 -3.097,-0.2684 0,0 -3.2285,0.1351 -3.9041,-2.425 0,0 -0.5442,-1.6142 0.2647,-2.9693 0,0 1.4809,-2.9619 5.7924,-2.0141 0,0 2.4288,0.6794 2.6935,-1.0681 l -0.1277,-6.4699 c 0,0 -0.5461,-1.7512 2.8231,-2.6935 0,0 4.3133,1.2107 5.6535,-0.9441 0,0 1.4846,-2.9674 2.6842,-0.9497 0,0 2.5694,2.4306 9.5762,2.1696 0,0 12.1234,-0.9497 12.3881,-0.4165 0,0 2.96,0.4165 3.769,1.3514 l 0.8108,0.1296 z"
           fill="#1f1f1f"
           id="path40" />
        <path
           d="m 83.5463,104.1008 c 0,0 0.938,-0.3971 1.2114,-1.0646 0,0 2.8284,-0.2791 3.2284,-0.679 l 8.891,0.679 c 0,0 8.7528,0.6675 12.525,-2.0371 0,0 1.3581,0 2.3019,0.4115 0,0 1.8789,0.4057 2.4112,1.2056 l 5.1217,-0.1352 c 0,0 2.9665,0.9495 2.6932,2.8399 v 2.417 c 0,0 -0.5438,4.8512 0.8057,5.1216 h 3.9103 c 0,0 3.2312,1.4847 2.8284,3.3665 0,0 0.1381,2.6874 -2.6845,3.2284 0,0 -2.8399,0.8057 -3.7722,0.6819 0,0 -0.9524,1.2085 -1.0876,2.6874 l -0.3999,17.6467 c 0,0 -0.2733,1.8789 2.5551,1.6113 0,0 4.1693,-0.3942 5.3893,1.8933 0,0 1.0819,3.9017 -1.0733,4.575 l -1.6113,0.8085 -3.5132,0.5438 c 0,0 -1.4761,0.1324 -1.6113,2.6874 v 4.7159 c 0,0 0.1352,3.2312 -2.4285,3.2312 l -3.7664,0.2705 c 0,0 -0.9438,0.8028 -2.8284,0.2647 0,0 -22.8978,0.4115 -23.7035,0.1352 l -2.7047,0.5438 c 0,0 -2.9521,2.6961 -5.3806,0.6647 L 78.966,160.931 c 0,0 -1.3437,0.2762 -1.8818,0.141 -0.5409,-0.141 -25.3205,0.2762 -25.3205,0.2762 0,0 -5.254,0.5381 -5.6568,-1.2171 0,0 -0.6704,-6.8682 -0.4,-7.6825 0,0 0,-2.0113 -1.2171,-2.1494 0,0 -5.2483,-0.2647 -5.3864,-0.8057 0,0 -2.8313,-2.0228 -2.0228,-4.0369 0,0 0.9495,-2.6989 3.7779,-2.9694 0,0 4.3045,0.6848 4.3045,-0.5381 0,0 0.2733,-0.8085 0.2733,-2.1465 0,0 0.2705,-16.0382 0.1352,-17.1115 0,0 0.3999,-2.0256 -1.3523,-2.0256 0,0 -1.8847,0.5352 -3.096,-0.2647 0,0 -3.2284,0.1352 -3.9017,-2.4256 0,0 -0.5467,-1.6142 0.2647,-2.9694 0,0 1.4789,-2.9608 5.7892,-2.017 0,0 2.4313,0.679 2.6961,-1.0675 l -0.1295,-6.4682 c 0,0 -0.5438,-1.7494 2.8255,-2.6961 0,0 4.3131,1.2114 5.654,-0.9409 0,0 1.4789,-2.9665 2.6845,-0.9524 0,0 2.5695,2.4313 9.5729,2.1724 0,0 12.1222,-0.9524 12.3869,-0.4201 0,0 2.9636,0.4201 3.7722,1.3523 l 0.8085,0.1324 z"
           fill="none"
           stroke="#1f1f1f"
           stroke-width="0.3109"
           id="path41" />
        <path
           d="m 87.0502,157.1993 c 0,0 1.6179,-0.8201 2.699,-0.5331 1.0755,0.2573 16.8347,-0.1407 16.8347,-0.1407 0,0 6.866,0.5331 7.9453,-0.4147 l 1.605,-0.5368 c 0,0 0.6794,-0.7997 0.6794,-1.8734 0,-1.0903 0.137,-4.7224 0.137,-4.7224 l 0.4073,-1.3366 c 0,0 -0.1333,-1.3532 0,-37.3236 0,0 0.5313,-2.8138 -1.2236,-4.5706 0,0 0,-1.0737 0.5442,-0.9423 0.5461,0.1425 0.2721,0.1425 0.2721,0.1425 0,0 2.4213,-0.6849 2.8212,0.2573 0,0 1.0866,3.2229 0.1351,5.113 0,0 -0.2684,3.9134 1.766,3.9134 0,0 0.8034,0.8127 2.4176,0.4054 0,0 3.4987,0.4073 3.4987,1.4772 0,0 0,2.4288 -2.425,2.0233 l -3.2359,0.2666 c 0,0 -2.1566,0.4165 -1.8845,2.96 0.274,2.5639 -0.137,20.8813 -0.137,20.8813 0,0 0,2.164 3.371,2.0326 0,0 4.1763,-0.1444 4.1763,1.0644 0,0 1.0755,2.699 -1.8845,2.836 0,0 -5.6628,-0.137 -5.2518,1.4735 0,0 -0.411,3.7727 -0.6794,4.4428 0,0 0.5479,3.1044 -0.1314,3.6431 0,0 -0.3943,1.7512 -4.0337,1.4791 0,0 -23.1639,-0.1277 -26.8051,0.1314 0,0 -2.1585,-0.2592 -1.6179,-2.1492"
           fill="#ffffff"
           id="path42" />
        <path
           d="m 82.879,154.6408 c 0,0 2.2881,0.3962 2.2881,2.5583 0,2.1492 0.1351,3.3655 -1.2181,3.6339 -1.3403,0.2666 -2.8194,-0.1333 -3.2192,-1.8771 -0.411,-1.7568 0.2592,-3.919 2.1492,-4.3151"
           fill="#ffffff"
           id="path43" />
        <path
           d="m 85.5693,153.5632 c 0,0 2.4195,-1.6253 3.3636,-1.3495 0,0 12.2567,0.809 16.035,0.1444 3.769,-0.6794 1.4791,-0.1444 1.4791,-0.1444 0,0 3.234,0 4.1726,-1.2144 0,0 0.946,-0.2592 1.4847,0.6794 l 2.0085,2.1603 c 0,0 0.1462,1.3421 -2.1474,1.2033 0,0 -21.9569,0 -22.6233,0.1388 0,0 -4.1763,0.6664 -3.7727,-1.6179"
           fill="#ffffff"
           id="path44" />
        <path
           d="m 85.5693,153.5633 c 0,0 2.4198,-1.6257 3.3636,-1.3495 0,0 12.2574,0.8085 16.0354,0.1439 3.7693,-0.679 1.4789,-0.1439 1.4789,-0.1439 0,0 3.2341,0 4.1721,-1.2142 0,0 0.9466,-0.259 1.4847,0.679 l 2.0084,2.1609 c 0,0 0.1467,1.3408 -2.1465,1.2027 0,0 -21.9569,0 -22.6245,0.1381 0,0 -4.175,0.6675 -3.7722,-1.6171 z"
           fill="none"
           stroke="#1f1f1f"
           stroke-width="0.3264"
           id="path45" />
        <path
           d="m 53.6516,105.7475 c 0,0 0.9404,0 0.809,1.6179 l -0.274,40.6761 c 0,0 0.4054,2.699 -1.8808,4.4484 0,0 -1.2199,1.4735 -1.2199,-0.8108 l 0.5461,-41.4832 c 0,0 0.1314,-3.0989 2.0196,-4.4484"
           fill="#ffffff"
           id="path46" />
        <path
           d="m 53.6516,105.7475 c 0,0 0.9409,0 0.8085,1.6171 l -0.2733,40.6768 c 0,0 0.4057,2.6989 -1.8818,4.4484 0,0 -1.22,1.4732 -1.22,-0.8114 l 0.5467,-41.4825 c 0,0 0.1324,-3.0989 2.0199,-4.4484 z"
           fill="none"
           stroke="#1f1f1f"
           stroke-width="0.3264"
           id="path47" />
        <path
           d="m 51.4979,106.0213 c 0,0 -1.6179,2.9637 -1.4809,3.6431 l -0.137,9.0134 c 0,0 -0.1351,5.7923 0,6.4662 0.137,0.6738 -0.1351,17.6492 -0.1351,17.6492 0,0 -0.1351,3.2229 0,4.3114 v 7.2677 c 0,0 -0.2703,3.234 2.1529,2.4195 0,0 23.7007,-0.5387 25.1909,-0.124 0,0 2.1492,0.3943 1.3495,1.4735 0,0 0,0.946 -1.4939,0.6738 0,0 -11.1756,1.07 -21.272,0.6757 0,0 -6.7383,0.3943 -7.1437,-0.4036 0,0 -1.0755,-0.1314 -1.0755,-4.0448 0,0 0,-3.6283 -0.2592,-4.3022 0,0 0.2592,-1.9067 -3.1044,-2.2992 0,0 -4.7113,0.8145 -4.8482,-2.0141 0,0 0.672,-2.0196 5.25,-1.7549 0,0 3.3692,0.5387 2.7027,-2.1603 l 0.3962,-19.9224 c 0,0 0.411,-3.5135 -1.8845,-3.6487 0,0 -2.1492,-0.1185 -2.8305,0.1351 0,0 -3.906,0 -3.6339,-2.2788 0,0 1.3458,-2.4288 5.25,-1.8901 0,0 2.9619,0.5368 3.0989,-2.8231 0,0 -0.137,-6.8734 1.4791,-7.1382 0,0 3.3729,0.124 2.4288,1.0755"
           fill="#ffffff"
           id="path48" />
        <path
           d="m 55.5318,150.5989 c 0,0 1.8882,2.0104 4.9889,1.8901 l 18.3064,0.2647 c 0,0 2.0289,0.1388 1.9012,1.2088 0,0 -0.2851,1.6105 -2.6953,1.0792 l -22.092,-0.2684 -2.4288,0.1444 c 0,0 -1.6179,-0.2758 0.9497,-3.3747 l 1.07,-0.9441 z"
           fill="#ffffff"
           id="path49" />
        <path
           d="m 55.5317,150.5991 c 0,0 1.8875,2.0113 4.9893,1.8904 l 18.3056,0.2647 c 0,0 2.0285,0.1381 1.9019,1.2085 0,0 -0.2849,1.6113 -2.6961,1.079 l -22.0922,-0.2676 -2.4285,0.1439 c 0,0 -1.6171,-0.2762 0.9495,-3.3751 l 1.0704,-0.9438 z"
           fill="none"
           stroke="#1f1f1f"
           stroke-width="0.3264"
           id="path50" />
        <path
           d="m 112.1032,148.8374 c 0,0 1.6179,3.1026 2.425,3.5247 0,0 1.4828,1.7383 1.0792,-1.3588 l 0.2703,-38.8008 c 0,0 -0.4054,-1.3403 0,-3.4895 l -1.6161,-2.9674 c 0,0 -1.7549,-1.3421 -1.7549,0.8127 l -0.2684,41.3499 -0.1351,0.9293 z"
           fill="#ffffff"
           id="path51" />
        <path
           d="m 112.1032,148.8373 c 0,0 1.6171,3.1018 2.4256,3.5247 0,0 1.4818,1.7379 1.079,-1.3581 l 0.2705,-38.8008 c 0,0 -0.4057,-1.3408 0,-3.4902 l -1.6171,-2.9665 c 0,0 -1.7552,-1.3437 -1.7552,0.8114 l -0.2676,41.3501 z"
           fill="none"
           stroke="#1f1f1f"
           stroke-width="0.3264"
           id="path52" />
        <path
           d="m 82.2061,130.3887 c 0,0 0.1351,3.2248 -0.2758,6.3218 -0.2221,1.6975 0.5442,9.5725 -0.1388,13.6117 0,0 -0.124,1.3421 -2.96,0.1407 0,0 -17.2382,0.3943 -17.7714,-0.1407 0,0 -4.7187,0.1407 -5.1204,-2.2899 0,0 0.6701,-18.447 0.2703,-19.1431 0,0 -0.2703,-10.0908 0,-11.0294 0,0 0.3999,-9.2929 0.1314,-10.3722 0,0 0.1351,-2.1548 -0.2647,-3.2359 0,0 0,-1.3495 2.2881,-0.5424 0,0 0.796,1.4847 5.2481,0.8238 0,0 3.2396,0.5313 6.3366,0.1259 0,0 6.8642,-0.5368 8.6228,0 0,0 2.6953,-0.5368 3.4932,2.4325 l -0.1351,8.347 0.809,2.6898 0.946,-0.6646 0.3961,-2.0252 0.1351,-8.8912 c 0,0 0.5387,-1.6198 2.6972,-1.8882 0,0 3.3655,-0.4073 3.9152,-0.1259 0.5331,0.2592 7.8009,0.6609 9.8353,0.2592 2.0104,-0.4054 2.4102,1.3458 8.4766,-1.742 0,0 1.6179,0.1296 1.6179,1.2014 0,0 -0.5535,11.457 0,13.6081 0,0 0,21.0091 -0.4147,22.4882 l 0.2758,6.7383 c 0,0 0.2647,2.9637 -4.4391,3.2359 0,0 2.96,0.3999 -15.6333,-0.137 0,0 -2.96,-0.1351 -6.1922,1.3366 0,0 -0.6701,-0.1314 -0.6701,-1.8771 0,0 0.5313,-6.3255 0,-12.5344 l -0.2647,-6.8623 -1.2144,0.1407 z"
           fill="#ffffff"
           id="path53" />
        <path
           d="m 70.0797,120.8336 c 0,0 0.4091,9.9668 0,11.3144 l -0.124,2.1548 c 0,0 0.5331,1.4754 1.3403,2.0196 0,0 0.6775,1.8808 -0.946,1.7549 0,0 -3.3599,-0.2795 -4.1689,-0.1499 0,0 -1.8938,0 0,-2.4084 0,0 0.6683,-0.9515 0.5313,-3.371 0,0 0,-11.3144 0.2777,-11.9827 0,0 0.2647,-1.4865 -0.6831,-1.8956 l -1.6161,0.1388 -2.0122,1.8864 c 0,0 -0.411,2.027 -1.3551,-0.1296 v -1.0848 l 1.2144,-3.2285 0.8145,-0.1425 c 0,0 1.2051,0.8145 2.2844,1.0866 h 6.3366 l 2.2844,-1.0866 c 0,0 0.9404,0.1425 0.6794,1.3514 0,0 0.3962,3.1044 -1.3532,3.5024 0,0 -1.0792,-0.398 -1.6105,-1.8845 0,0 -1.7586,-0.9385 -1.8938,2.1548"
           fill="#1f1f1f"
           id="path54" />
        <path
           d="m 99.8395,117.2032 c 0,0 -5.1074,-0.411 -5.237,5.113 0,0 -0.5554,3.7783 5.113,6.207 0,0 4.1744,2.0104 3.8986,4.5687 0,0 -0.5368,4.5798 -4.9834,2.2899 0,0 -2.1492,-1.0792 -2.0104,-2.2899 0,0 -0.6794,-1.4846 -1.4846,-1.2107 0,0 -0.9534,0.2666 -0.5331,4.7131 0,0 0,1.7512 2.0178,0 l 1.07,0.2703 c 0,0 3.6376,2.9637 6.7291,-0.6775 0,0 3.3766,-3.0952 0.9441,-6.8642 0,0 -1.7494,-2.6898 -4.839,-4.0374 0,0 -2.9693,-1.3588 -3.6394,-3.6431 0,0 0.946,-4.043 4.5724,-1.8919 0,0 1.3514,1.6198 2.1566,1.8919 0,0 1.0792,0 0.8053,-2.4306 l -0.2555,-2.0085 c 0,0 -0.274,-1.4995 -2.164,0 0,0 -1.7512,0.6609 -2.1603,0"
           fill="#1f1f1f"
           id="path55" />
        <path
           d="m 83.4165,114.3646 c 0.9385,0.6831 1.0737,2.0233 1.0737,2.0233 2.6953,7.1419 4.9852,17.5103 4.9852,17.5103 0.672,1.3421 1.8864,2.4288 1.8864,2.4288 2.2899,0.8034 0,1.4717 0,1.4717 -0.9441,0.411 -4.0356,-0.124 -4.0356,-0.124 -1.6216,-0.2832 -0.9552,-0.809 -0.9552,-0.809 0.6794,-0.6794 0.1351,-3.3784 0.1351,-3.3784 -0.1351,-1.0663 -1.3403,-2.8231 -1.3403,-2.8231 -0.535,-0.2721 -1.4809,0.9441 -1.4809,0.9441 0,0 -1.4791,0.5387 -1.6198,0 -0.137,-0.5461 -1.0774,-1.0663 -1.0774,-1.0663 -1.6142,0 -2.2844,4.0245 -2.2844,4.0245 0.9404,3.3747 0,2.8249 0,2.8249 -0.809,1.0848 -3.3692,0.2832 -3.3692,0.2832 -1.2088,-0.2832 -0.3962,-1.2236 -0.3962,-1.2236 1.4754,-0.2647 1.8752,-1.8845 1.8752,-1.8845 0.6794,-0.9404 4.9797,-18.4489 4.9797,-18.4489 0.4128,-0.8145 0.6794,-2.4269 1.6235,-1.7531 m -2.1492,8.8912 c -0.1407,0.6738 -1.0848,4.4447 -1.0848,4.4447 l 0.8053,1.3532 c 0,0 2.1548,0.1296 2.9637,0.1296 0.8034,0 0.9441,-0.6627 0.9441,-1.3532 0,-0.6646 -1.4791,-4.7039 -1.4791,-4.7039 l -0.6794,-0.8053 -1.4698,0.9348 z"
           fill="#1f1f1f"
           id="path56" />
        <path
           d="m 46.9262,81.7494 c 0,0 -1.4846,4.7242 -8.0823,-0.1351 L 16.2187,81.0756 c 0,0 -2.9637,0.9534 -3.3692,-2.1511 0,0 0.5405,-6.1922 0.2647,-6.7328 0,0 0.1407,-1.7531 -2.8231,-1.7531 0,0 -4.578,0.5461 -4.7094,-3.4969 0,0 -0.8108,-4.3188 5.5184,-4.18 0,0 2.0141,0.9441 2.1548,-1.6105 0,0 -0.2721,-17.5159 -0.1407,-18.8654 0,0 0.5498,-1.5994 -2.5546,-1.8715 0,0 -4.4484,0.9311 -4.9778,-2.0326 0,0 -0.274,-4.4354 2.6879,-4.7094 0,0 3.6339,0.274 4.3133,-0.6627 0,0 0.8071,0.5239 0.672,-2.7101 l 0.1351,-5.5128 c 0,0 0.4036,-1.4846 2.6879,-1.3495 0,0 4.1781,0.2629 4.7224,-0.1351 0,0 0.946,-1.2088 1.2014,-1.7531 0,0 2.164,-0.1222 2.5676,0.4036 0,0 3.2285,2.1548 15.4981,1.3495 0,0 1.8752,0 2.2844,0.5405 0,0 2.2844,1.7475 3.6283,-0.1425 0,0 2.0215,-0.398 8.0841,-0.2629 0,0 6.5902,1.7438 11.1756,-2.0104 l 1.4791,0.2666 c 0,0 1.8827,3.0933 3.2396,2.1492 0,0 4.0374,-0.4054 4.7187,0.4054 0,0 1.3421,2.0215 0.6627,7.2752 0,0 -0.8034,2.2899 3.0989,2.2899 0,0 4.4447,-0.8034 3.9078,3.3581 0,0 1.2162,4.7187 -6.1922,4.0485 0,0 -0.9478,1.3495 -0.8145,2.288 0,0 -0.1333,15.35 -0.2684,17.1049 0,0 -0.1296,2.4195 3.0989,2.2936 0,0 4.3114,-0.2832 4.4465,3.6339 0,0 0.5313,5.1185 -5.6535,4.1689 0,0 -1.8919,0.2758 -2.1622,1.4828 l -0.2647,6.7328 c 0,0 0.1407,3.3692 -3.6413,2.5657 -0.5387,0 -21.0054,0.398 -22.7584,-0.1314 0,0 -0.9367,-0.1425 -1.2107,0.3906"
           fill="#1f1f1f"
           id="path57" />
        <path
           d="m 46.9262,81.7494 c 0,0 -1.4847,4.7246 -8.0824,-0.1352 L 16.2193,81.0761 c 0,0 -2.9637,0.9524 -3.3694,-2.1523 0,0 0.5409,-6.192 0.2647,-6.733 0,0 0.141,-1.7523 -2.8227,-1.7523 0,0 -4.5778,0.5467 -4.7102,-3.496 0,0 -0.8114,-4.3189 5.5187,-4.1808 0,0 2.0141,0.9438 2.1551,-1.6113 0,0 -0.2733,-17.5143 -0.141,-18.8638 0,0 0.5496,-1.5998 -2.5551,-1.8731 0,0 -4.4484,0.9323 -4.9778,-2.0314 0,0 -0.2733,-4.4369 2.6874,-4.7102 0,0 3.6341,0.2733 4.3131,-0.6618 0,0 0.8085,0.5237 0.6733,-2.7105 l 0.1352,-5.513 c 0,0 0.4028,-1.4847 2.6874,-1.3495 0,0 4.1779,0.2618 4.7217,-0.1352 0,0 0.9466,-1.2085 1.2027,-1.7523 0,0 2.1638,-0.1237 2.5666,0.4028 0,0 3.2284,2.1551 15.4973,1.3495 0,0 1.876,0 2.2846,0.5409 0,0 2.2846,1.7465 3.6283,-0.1439 0,0 2.0228,-0.3971 8.0853,-0.2618 0,0 6.5891,1.7437 11.1756,-2.0113 l 1.4789,0.2676 c 0,0 1.8818,3.0931 3.2399,2.1494 0,0 4.0369,-0.4057 4.7188,0.4057 0,0 1.3408,2.0199 0.6618,7.2739 0,0 -0.8028,2.2904 3.0989,2.2904 0,0 4.4455,-0.8028 3.9074,3.3579 0,0 1.2171,4.7188 -6.192,4.0484 0,0 -0.9466,1.3495 -0.8143,2.2875 0,0 -0.1324,15.3506 -0.2676,17.1057 0,0 -0.1295,2.4198 3.0989,2.2932 0,0 4.3102,-0.282 4.4455,3.6341 0,0 0.5323,5.1188 -5.654,4.1692 0,0 -1.8904,0.2762 -2.1609,1.4818 l -0.2647,6.733 c 0,0 0.141,3.3694 -3.6427,2.5666 -0.5381,0 -21.0045,0.3971 -22.7568,-0.1324 0,0 -0.938,-0.141 -1.2114,0.3913 z"
           fill="none"
           stroke="#1f1f1f"
           stroke-width="0.3109"
           id="path58" />
        <path
           d="m 21.4702,26.2681 c 0,0 0.2758,2.6879 0.2758,3.3599 0,0.672 -0.411,38.9248 -0.411,38.9248 0,0 0.411,2.973 -2.1548,4.4484 0,0 -0.6701,0.2758 -0.809,-1.6105 l 0.2703,-40.4039 c 0,0 0.2684,-4.9871 2.8286,-4.7187"
           fill="#ffffff"
           id="path59" />
        <path
           d="m 21.4701,26.2681 c 0,0 0.2762,2.6874 0.2762,3.3607 0,0.6704 -0.4115,38.9245 -0.4115,38.9245 0,0 0.4115,2.9723 -2.1551,4.4484 0,0 -0.6704,0.2762 -0.8085,-1.6113 l 0.2705,-40.4035 c 0,0 0.2676,-4.9864 2.8284,-4.7188 z"
           fill="none"
           stroke="#1f1f1f"
           stroke-width="0.3264"
           id="path60" />
        <path
           d="m 17.0276,73.4053 c 0,0 0.2684,-37.9807 0.1351,-38.6601 -0.1351,-0.6664 0.1333,0.5442 0.1333,0.5442 0,0 -0.398,-6.5884 1.3458,-9.2948 0,0 -0.5387,-2.2899 -3.6376,0.5387 l -0.1296,5.5239 c 0,0 0,3.1026 -2.8305,2.9675 0,0 -3.234,-0.1444 -4.7224,1.3458 0,0 -0.8016,2.9582 2.2918,2.4269 0,0 4.8501,0 5.1185,2.0048 l -0.2684,20.3482 c 0,0 1.0829,3.3673 -2.6935,3.3673 0,0 -4.578,-0.2684 -4.4484,2.5602 0,0 0.9478,2.4288 4.8575,1.6179 0,0 2.8249,0.535 2.6953,3.2211 v 5.1259 c 0,0 -0.2777,2.0252 2.4213,2.1511 h 21.0128 c 0,0 1.0737,0.1407 1.0737,-1.2199 0,0 -0.137,-1.0607 -1.7475,-1.0607 l -17.5029,-0.274 c 0,0 -2.836,0.9404 -3.1044,-3.234"
           fill="#ffffff"
           id="path61" />
        <path
           d="m 20.6651,73.6738 c 0,0 -0.535,1.8938 1.4754,1.481 h 13.8746 l 3.7727,0.8034 c 0,0 3.9153,-0.9385 0,-3.0933 0,0 -12.3918,0.1351 -13.4711,-0.1314 0,0 -2.5528,-0.6738 -3.097,-0.8053 0,0 -1.3495,-0.5387 -2.5546,1.7457"
           fill="#ffffff"
           id="path62" />
        <path
           d="m 20.6651,73.6739 c 0,0 -0.5352,1.8933 1.4761,1.4818 h 13.8745 l 3.7722,0.8028 c 0,0 3.916,-0.938 0,-3.0931 0,0 -12.3927,0.1352 -13.4717,-0.1324 0,0 -2.5522,-0.6733 -3.096,-0.8057 0,0 -1.3495,-0.5381 -2.5551,1.7465 z"
           fill="none"
           stroke="#1f1f1f"
           stroke-width="0.3264"
           id="path63" />
        <path
           d="m 43.7003,75.5677 c 0,0 -2.5657,0 -2.4306,3.3544 0,0 0.2666,2.5694 2.96,2.5694 0,0 2.425,-0.4128 2.1585,-3.0989 0,0 -1.4884,-3.371 -2.6879,-2.8249"
           fill="#ffffff"
           id="path64" />
        <path
           d="m 45.5804,74.2119 c 0,0 1.2088,-1.3458 2.0196,-1.3458 0,0 13.4655,1.2125 15.7573,-0.398 0,0 2.0252,-0.3999 2.5565,0 0,0 2.0215,1.6105 2.0215,2.5528 0,0 -0.1296,1.2218 -2.5528,0.5461 0,0 -15.2278,0.1333 -16.0294,0.1333 0,0 -4.1818,0.9367 -3.7727,-1.4884"
           fill="#ffffff"
           id="path65" />
        <path
           d="m 45.5804,74.2119 c 0,0 1.2085,-1.3466 2.0199,-1.3466 0,0 13.4659,1.2142 15.7563,-0.3971 0,0 2.0256,-0.3999 2.5579,0 0,0 2.0199,1.6113 2.0199,2.5522 0,0 -0.1295,1.2229 -2.5522,0.5467 0,0 -15.2268,0.1324 -16.0296,0.1324 0,0 -4.1808,0.938 -3.7722,-1.4876 z"
           fill="none"
           stroke="#1f1f1f"
           stroke-width="0.3264"
           id="path66" />
        <path
           d="m 47.7341,78.254 c 0,0 0,-1.07 1.8752,-1.07 l 18.8673,-0.1407 c 0,0 1.7475,0.9312 1.7475,-2.2918 0,0 0.6905,-14.6817 0.7553,-30.85 0.0204,-4.8075 0.2332,-9.8575 0.0518,-14.5336 0,0 -0.4054,-2.0141 -0.9423,-2.4287 0,0 0,-2.1548 2.2973,-1.3384 0,0 2.0122,0.1296 1.4717,3.2229 l 0.137,4.7168 c 0,0 -0.4073,2.0159 3.2285,1.4847 0,0 3.632,0.5313 3.7672,1.8808 0,0 1.0848,2.699 -3.2192,2.4232 h -3.0933 c 0,0 -1.3532,0.8053 -0.9497,2.4251 l -0.4036,19.53 c 0,0 -0.2758,3.3636 2.9637,3.2414 0,0 3.3673,-0.1407 4.0337,0.9348 0,0 2.2936,3.371 -2.6935,3.097 0,0 -3.0915,-0.1351 -3.7709,0.4054 0,0 -0.5331,0.6794 -0.9423,6.9975 0,0 0.2721,3.7783 -2.5602,3.3729 0,0 -18.7173,0.2647 -20.463,-0.1388 0,0 -1.8901,0.5442 -2.1585,-0.9404"
           fill="#ffffff"
           id="path67" />
        <path
           d="m 23.4819,25.0458 -0.3943,43.2381 c 0,0 -0.1314,2.0085 3.2322,2.4139 0,0 3.9097,0.4091 4.8445,0 0,0 2.5546,-0.1296 9.1615,0.1407 0,0 1.6179,1.6105 1.7494,-0.4054 0,0 1.0792,-35.017 0.5405,-42.2921 0,0 -0.1351,-3.0952 -2.4306,-3.234 0,0 -10.2315,0.8071 -11.1737,0 l -4.0356,-1.0774 c 0,0 -1.6235,0.1314 -1.4939,1.2162"
           fill="#ffffff"
           id="path68" />
        <path
           d="m 66.1868,26.67 -0.1351,42.5587 c 0,0 1.0755,3.7727 2.8305,3.3692 0,0 0.2684,-0.809 0.4036,-2.1603 l 0.5387,-40.5391 c 0,0 -1.3477,-6.4662 -3.6376,-3.2285"
           fill="#ffffff"
           id="path69" />
        <path
           d="m 66.1867,26.6701 -0.1352,42.5586 c 0,0 1.0761,3.7722 2.8313,3.3694 0,0 0.2676,-0.8085 0.4028,-2.1609 l 0.5381,-40.5387 c 0,0 -1.3466,-6.4654 -3.6369,-3.2284 z"
           fill="none"
           stroke="#1f1f1f"
           stroke-width="0.3264"
           id="path70" />
        <path
           d="m 44.7768,27.0284 c 0,0 -0.4036,20.3334 -0.2758,21.0128 l -0.2573,17.1031 -0.5424,5.9219 c 0,0 0.7997,1.2199 1.4754,0.411 0,0 4.317,-1.0792 7.0067,-0.6757 0,0 8.6265,0.8164 10.3703,-0.535 0,0 1.3458,0.6646 1.7494,-1.4847 0,0 0.5368,-37.7104 0.2721,-38.3843 0,0 0.5387,-5.3888 0.2647,-5.9219 0,0 -0.1407,-1.2218 -2.4195,-0.1425 0,0 0.2647,1.0811 -12.5251,0.6757 0,0 -4.8501,-0.1333 -5.1185,2.0196"
           fill="#ffffff"
           id="path71" />
        <path
           d="m 40.6194,39.4844 -1.2162,2.5657 c 0,0 -2.9582,13.0545 -4.5706,15.7517 0,0 -0.2666,2.7046 -2.5583,0.5368 0,0 -5.2592,-16.5644 -5.5295,-17.0994 L 24.9954,40.023 c 0,0 -1.0644,-1.4828 0.8108,-1.6142 l 4.9834,0.1314 c 0,0 1.6142,1.3477 -0.535,2.8397 0,0 0.2647,2.1492 3.0933,10.3611 0,0 0.8053,3.097 1.7494,0.809 l 2.699,-9.5632 -0.8145,-2.8286 c 0,0 -0.8071,-1.3477 0.4073,-1.4828 0,0 2.8268,-0.2666 3.2303,0.809"
           fill="#1f1f1f"
           id="path72" />
        <path
           d="m 48.4353,41.6425 -0.1407,14.2782 -0.398,1.07 c 0,0 -1.3458,1.7512 -0.4054,1.8901 0,0 -1.2051,0.809 8.6154,0.9404 0,0 3.7783,0.6701 2.8342,-4.1781 0,0 -0.4054,-1.7457 -1.7586,0.809 0,0 -0.4091,2.1529 -5.2444,1.4791 0,0 -1.0792,-0.9404 -1.0792,-2.0104 v -5.9312 c 0,0 -0.1407,-1.4809 2.1511,-1.3347 0,0 2.5583,1.605 2.9674,0.92 0,0 0.9385,-2.1437 0,-3.4895 0,0 -1.2199,-0.1277 -1.3495,0.4017 0,0 -0.8108,1.6179 -3.097,0.6738 0,0 -1.0774,-2.1511 -0.4054,-3.9004 0,0 -0.2666,-3.3729 2.0233,-3.1026 0,0 2.6935,0.5387 2.9582,1.3514 0,0 0.6664,1.6216 1.3514,-0.2666 l -0.6849,-2.2955 c 0,0 -0.3906,-0.9423 -1.07,-0.6738 0,0 -4.578,0.6738 -5.1185,0.1314 l -3.6431,0.4072 c 0,0 -0.5313,1.3458 1.0848,2.0159 0,0 0.4091,0.2758 0.4091,0.8145"
           fill="#1f1f1f"
           id="path73" />
      </g>
    </g>
  </g>
</svg>
