<?xml version="1.0" encoding="UTF-8" standalone="no"?>
<!-- Created with Inkscape (http://www.inkscape.org/) -->

<svg
   width="55.053646mm"
   height="4.2952008mm"
   viewBox="0 0 55.053646 4.2952008"
   version="1.1"
   id="svg1"
   inkscape:version="1.3 (0e150ed6c4, 2023-07-21)"
   sodipodi:docname="drawing-1.svg"
   xmlns:inkscape="http://www.inkscape.org/namespaces/inkscape"
   xmlns:sodipodi="http://sodipodi.sourceforge.net/DTD/sodipodi-0.dtd"
   xmlns="http://www.w3.org/2000/svg"
   xmlns:svg="http://www.w3.org/2000/svg">
  <sodipodi:namedview
     id="namedview1"
     pagecolor="#ffffff"
     bordercolor="#000000"
     borderopacity="0.25"
     inkscape:showpageshadow="2"
     inkscape:pageopacity="0.0"
     inkscape:pagecheckerboard="0"
     inkscape:deskcolor="#d1d1d1"
     inkscape:document-units="mm"
     inkscape:zoom="256"
     inkscape:cx="95.40625"
     inkscape:cy="14.205078"
     inkscape:window-width="1440"
     inkscape:window-height="837"
     inkscape:window-x="-8"
     inkscape:window-y="-8"
     inkscape:window-maximized="1"
     inkscape:current-layer="layer1" />
  <defs
     id="defs1" />
  <g
     inkscape:label="Layer 1"
     inkscape:groupmode="layer"
     id="layer1"
     transform="translate(-46.302084,-92.604166)">
    <path
       id="path1"
       style="display:inline;mix-blend-mode:normal;fill:#fed100;fill-opacity:1;fill-rule:nonzero;stroke:none;stroke-width:0.0701146;stroke-dasharray:none;stroke-dashoffset:0;stroke-opacity:1"
       d="m 88.794717,92.604166 v 3.841488 l 0.514916,0.444913 2.899164,0.0088 0.532416,-0.549918 v -1.942621 l -0.533784,-0.533781 -2.117632,-0.0088 -0.472527,0.525034 2.571292,0.0075 0.01886,1.996356 -2.843927,0.01749 v -3.797733 z m 4.400566,0 v 3.841488 l 0.515051,0.444913 2.899029,0.0088 0.532416,-0.549918 v -1.942621 l -0.533784,-0.533781 -2.117632,-0.0088 -0.472527,0.525034 2.571427,0.0075 0.01873,1.996356 -2.843927,0.01749 v -3.797733 z m -41.453644,0.01312 -5.439555,0.0088 v 0.609119 l 2.384112,-0.0088 -0.0087,3.668255 h 0.692386 l 0.01313,-3.659505 2.357861,-0.0088 z m 9.361577,0.0044 0.0015,4.27136 0.450379,-7.94e-4 0.0089,-4.270129 z m 18.039652,0.0029 -0.726294,5.29e-4 -0.0034,3.593055 0.720963,0.672836 4.769045,7.93e-4 -0.0026,-0.685688 -4.766448,0.0033 z m 5.818976,1.236972 -0.545132,0.517102 -0.0027,1.98528 0.513138,0.525716 2.340359,-5.29e-4 0.468566,-0.494405 -2.818085,-0.01749 0.0088,-2.007294 2.931978,-0.01312 0.0088,1.858259 0.455848,0.460089 0.0044,-2.813574 z m -20.479278,0.0035 -2.157966,0.0013 -0.497824,0.505343 2.68546,-0.01503 -0.0068,2.535333 0.4821,-2.65e-4 -5.56e-4,-2.498963 z m -7.273205,0.0064 -0.548686,0.531186 8.2e-4,1.971196 0.495636,0.518744 2.350888,-5.29e-4 0.475401,-0.487431 -2.817948,-0.01749 0.0087,-2.007293 2.931979,-0.01312 0.0087,1.858262 0.455711,0.460086 0.0044,-2.813573 z m 13.051708,0.0016 -0.52681,0.453249 -0.007,0.85058 0.297519,0.210013 -0.297519,0.210013 v 0.840052 l 0.498781,0.456806 2.723198,0.0019 0.51095,-0.477726 -3.251649,-0.007 v -0.796301 l 3.246453,-0.01408 0.0019,-0.455027 -3.239478,-0.0034 0.0087,-0.770049 3.230727,0.0034 -0.0019,-0.500422 z m -17.468407,0.0021 -0.555797,0.513684 0.0079,1.988698 0.509582,0.515189 2.333387,-5.3e-4 0.478956,-0.483878 -2.817949,-0.01749 0.0087,-2.007294 2.931979,-0.01312 0.0087,1.858259 0.455711,0.460086 0.0044,-2.813571 z m 16.406036,0.0056 -3.199143,0.0011 -0.533783,0.484836 v 0.801494 l 0.271266,0.253764 -0.276462,0.248571 v 0.712214 l 0.55648,0.509307 2.682314,-5.3e-4 0.494132,-0.489346 -3.220199,0.0088 -0.0088,-0.778798 3.237701,-0.0088 v -0.48128 h -3.228951 v -0.770048 l 3.227173,0.0035 z m 28.941735,5.3e-4 -0.520658,0.48538 v 0.795068 l 0.260329,0.203999 -0.260329,0.288494 0.0071,0.745847 0.49249,0.485381 h 2.750945 l 0.46433,-0.464325 -3.215275,-0.01408 0.007,-0.773875 3.215275,-0.02119 v -0.457216 h -3.236349 v -0.774012 l 3.236339,-0.03514 0.0141,-0.464325 z m -21.701482,5.29e-4 -1.968871,0.0019 -0.542533,0.523253 0.0019,2.486795 0.525034,-0.0035 -0.0019,-2.509629 h 1.986372 z" />
  </g>
</svg>
